<svg width="180" height="64" viewBox="0 0 180 64" fill="none" xmlns="http://www.w3.org/2000/svg">
<g clip-path="url(#clip0_677_2695)">
<path d="M30.1009 36.7248C30.8541 35.3268 31.2264 33.7926 31.1879 32.2448C31.2737 30.7383 30.8647 29.242 30.0103 27.936C29.2525 26.8896 28.2329 26.0107 27.0299 25.3672C25.8197 24.7255 24.5188 24.2278 23.1609 23.8872C21.7804 23.5389 20.4904 23.1923 19.291 22.8472C18.2316 22.5589 17.2266 22.1332 16.3089 21.584C15.9245 21.3457 15.6148 21.0253 15.4088 20.6525C15.2028 20.2798 15.1073 19.867 15.1312 19.4528C15.1132 18.9257 15.2858 18.4073 15.624 17.9728C15.958 17.5616 16.3972 17.2258 16.9059 16.9928C17.4339 16.7453 17.9977 16.5625 18.5817 16.4496C19.1465 16.3361 19.7237 16.2776 20.3029 16.2752C21.3381 16.2887 22.3632 16.4581 23.334 16.776C24.3291 17.0665 25.2093 17.6026 25.8704 18.3208L31.1435 13.228C29.709 12.0905 28.01 11.244 26.1657 10.748C24.3119 10.2532 22.3853 10.0039 20.4487 10.008C18.764 10.0053 17.0877 10.2179 15.4719 10.6392C13.9265 11.0262 12.4771 11.6658 11.1988 12.5248C9.96659 13.3667 8.95747 14.4362 8.24205 15.6584C7.4764 17.0079 7.09576 18.5021 7.13325 20.0112C7.05397 21.4663 7.47457 22.9085 8.33988 24.1488C9.12729 25.1777 10.1631 26.0397 11.3728 26.6728C12.611 27.3203 13.9348 27.8308 15.3142 28.1928C16.7262 28.5704 18.0403 28.9477 19.2566 29.3248C20.3407 29.6422 21.3633 30.1047 22.2886 30.696C22.6777 30.9473 22.9912 31.2791 23.2015 31.6622C23.4119 32.0453 23.5127 32.4681 23.4952 32.8936C23.5104 33.4045 23.3476 33.9071 23.0287 34.3336C22.7097 34.7446 22.2886 35.0858 21.7976 35.3312C21.2603 35.6021 20.6802 35.8005 20.0764 35.92C18.1864 36.3104 16.2016 36.1102 14.46 35.3536C13.2786 34.8627 12.252 34.1229 11.4706 33.1992L6 38.5088C7.56051 39.8104 9.40495 40.8175 11.4208 41.4688C13.4488 42.0916 15.5831 42.4012 17.7302 42.384C19.4704 42.3911 21.2034 42.186 22.8801 41.7744C24.4326 41.4005 25.8886 40.7648 27.1676 39.9024C28.4062 39.0538 29.4093 37.9671 30.1009 36.7248V36.7248Z" fill="#CBDDE8"/>
<path d="M33.6973 16.7905H43.6538V41.5993H51.341V16.7905H61.2966V10.7841H33.6973V16.7905Z" fill="#CBDDE8"/>
<path d="M119.233 14.3768C117.214 13.0727 114.92 12.1394 112.486 11.632C109.815 11.0571 107.074 10.7723 104.324 10.784H86.9239V29.4552C86.9339 30.3606 86.7586 31.2601 86.4066 32.1104C86.0833 32.8919 85.5889 33.6095 84.9518 34.2224C84.3291 34.8161 83.5745 35.29 82.7351 35.6144C81.8494 35.954 80.8924 36.1247 79.9269 36.1152C78.953 36.1236 77.9877 35.9531 77.0924 35.6144C76.243 35.294 75.4792 34.8198 74.8503 34.2224C74.2138 33.6091 73.7196 32.8916 73.3955 32.1104C73.0435 31.2601 72.8683 30.3606 72.8783 29.4552V10.784H65.1892V29.7168C65.1686 31.4349 65.4855 33.1432 66.1258 34.7656C66.7201 36.2605 67.6692 37.6259 68.9096 38.7704C70.21 39.9426 71.7846 40.8499 73.5232 41.4288C75.1814 41.9756 76.928 42.2845 78.6967 42.344L78.6342 42.3864H105.389C107.978 42.3963 110.553 42.0497 113.02 41.3592C115.355 40.719 117.532 39.697 119.439 38.3464C121.3 37.0137 122.81 35.3385 123.862 33.4376C124.997 31.3267 125.559 29.0114 125.504 26.6752C125.587 24.1396 125.007 21.6213 123.81 19.3152C122.755 17.3686 121.185 15.6748 119.233 14.3768V14.3768ZM116.326 30.8448C115.72 32.0247 114.791 33.0528 113.623 33.836C112.409 34.6228 111.023 35.1775 109.554 35.4648C107.888 35.8017 106.184 35.9663 104.475 35.9552H100.382V17.2112H105.031C106.628 17.2056 108.219 17.394 109.757 17.7712C111.17 18.1076 112.499 18.6756 113.674 19.4456C114.793 20.1976 115.701 21.1676 116.326 22.28C117.011 23.5385 117.349 24.9224 117.312 26.3184C117.363 27.8728 117.026 29.4181 116.326 30.8448V30.8448Z" fill="#CBDDE8"/>
<path d="M137.15 10.7841H129.461V41.5993H137.15V10.7841Z" fill="#CBDDE8"/>
<path d="M178.523 32.8936C179.488 30.7633 179.966 28.4853 179.928 26.1912C179.966 23.8971 179.488 21.6191 178.523 19.4888C177.642 17.5581 176.307 15.8146 174.605 14.3736C172.889 12.9449 170.86 11.8417 168.642 11.132C163.76 9.62266 158.443 9.62266 153.561 11.132C151.343 11.8415 149.314 12.9447 147.598 14.3736C145.896 15.8148 144.561 17.5582 143.679 19.4888C142.715 21.6193 142.238 23.8972 142.275 26.1912C142.238 28.4853 142.715 30.7631 143.679 32.8936C144.561 34.8239 145.897 36.5671 147.598 38.008C149.313 39.438 151.343 40.5418 153.561 41.2512C158.443 42.7606 163.76 42.7606 168.642 41.2512C170.86 40.5416 172.89 39.4378 174.605 38.008C176.307 36.5673 177.642 34.8241 178.523 32.8936V32.8936ZM171.186 30.1736C170.703 31.3392 169.956 32.4056 168.991 33.3072C168.026 34.2007 166.859 34.9052 165.567 35.3752C162.698 36.3619 159.514 36.3619 156.646 35.3752C155.353 34.9052 154.186 34.2007 153.221 33.3072C152.256 32.4056 151.509 31.3392 151.026 30.1736C150.009 27.602 150.009 24.802 151.026 22.2304C151.505 21.0565 152.252 19.9822 153.221 19.0744C154.187 18.1824 155.354 17.4786 156.646 17.008C159.514 16.0213 162.698 16.0213 165.567 17.008C166.859 17.4786 168.025 18.1824 168.991 19.0744C169.96 19.9822 170.707 21.0565 171.186 22.2304C172.202 24.8022 172.202 27.6019 171.186 30.1736Z" fill="#CBDDE8"/>
<path d="M6.07056 47.9928H8.08704V53.0176H9.64334V47.9928H11.6607V46.776H6.07056V47.9928Z" fill="#CBDDE8"/>
<path d="M28.7311 46.776L25.6765 53.016H27.3922L27.982 51.6936H30.7268L31.3355 53.016H33.0929L30.0184 46.776H28.7311ZM28.4711 50.536L29.329 48.596L30.1977 50.536H28.4711Z" fill="#CBDDE8"/>
<path d="M53.8158 51.1136H53.7949L50.7911 46.776H48.6749V53.0176H50.2321V48.5744H50.2521L53.3366 53.0176H55.373V46.776H53.8158V51.1136Z" fill="#CBDDE8"/>
<path d="M74.0096 46.776L70.955 53.016H72.6716L73.2604 51.6936H76.0052L76.614 53.016H78.3714L75.2968 46.776H74.0096ZM73.7496 50.536L74.6075 48.596L75.4762 50.536H73.7496Z" fill="#CBDDE8"/>
<path d="M98.5354 49.104H95.5107V46.776H93.9535V53.0176H95.5107V50.32H98.5354V53.0176H100.093V46.776H98.5354V49.104Z" fill="#CBDDE8"/>
<path d="M136.558 46.776L133.503 53.016H135.224L135.813 51.6936H138.558L139.167 53.016H140.924L137.849 46.776H136.558ZM136.298 50.536L137.156 48.596L138.024 50.536H136.298Z" fill="#CBDDE8"/>
<path d="M158.039 46.776H156.481V53.0176H158.039V46.776Z" fill="#CBDDE8"/>
<path d="M178.202 50.3816C178.653 50.3247 179.062 50.1143 179.341 49.7952C179.606 49.4696 179.742 49.0761 179.73 48.6752C179.742 48.3602 179.668 48.0473 179.515 47.7624C179.381 47.5282 179.182 47.3281 178.936 47.1808C178.678 47.0312 178.39 46.9263 178.088 46.872C177.751 46.809 177.408 46.7779 177.064 46.7792H174.329V53.0192H175.887V50.5232H176.656L178.134 53.0176H180L178.202 50.3816ZM177.987 49.0592C177.906 49.1525 177.797 49.2242 177.673 49.2664C177.537 49.3129 177.394 49.34 177.249 49.3464C177.092 49.356 176.944 49.36 176.804 49.36H175.887V47.94H176.906C177.049 47.9403 177.192 47.9491 177.334 47.9664C177.47 47.9808 177.602 48.0151 177.724 48.068C177.837 48.1176 177.933 48.1917 178.003 48.2832C178.083 48.3969 178.121 48.5291 178.113 48.6624C178.123 48.8034 178.078 48.9432 177.987 49.0592Z" fill="#CBDDE8"/>
</g>
<defs>
<clipPath id="clip0_677_2695">
<rect width="180" height="64" fill="white"/>
</clipPath>
</defs>
</svg>
