<svg width="10" height="10" viewBox="0 0 10 10" fill="none" xmlns="http://www.w3.org/2000/svg">
<g clip-path="url(#clip0_9_312)">
<path d="M9.58331 4.58332H5.41667V0.416674C5.41667 0.186548 5.23012 0 4.99999 0C4.76987 0 4.58332 0.186548 4.58332 0.416674V4.58334H0.416674C0.186548 4.58332 0 4.76987 0 4.99999C0 5.23012 0.186548 5.41667 0.416674 5.41667H4.58334V9.58333C4.58334 9.81346 4.76989 10 5.00002 10C5.23014 10 5.41669 9.81346 5.41669 9.58333V5.41667H9.58336C9.81349 5.41667 10 5.23012 10 4.99999C10 4.76987 9.81344 4.58332 9.58331 4.58332Z" fill="#2F89F8"/>
</g>
<defs>
<clipPath id="clip0_9_312">
<rect width="10" height="10" fill="white"/>
</clipPath>
</defs>
</svg>
