<svg width="20" height="20" viewBox="0 0 20 20" fill="none" xmlns="http://www.w3.org/2000/svg">
<path d="M17.5 2.1875H2.5C1.6375 2.1875 0.9375 2.8875 0.9375 3.75V16.25C0.9375 17.1125 1.6375 17.8125 2.5 17.8125H17.5C18.3625 17.8125 19.0625 17.1125 19.0625 16.25V3.75C19.0625 2.8875 18.3625 2.1875 17.5 2.1875ZM1.5625 3.75C1.5625 3.23438 1.98438 2.8125 2.5 2.8125H17.5C18.0156 2.8125 18.4375 3.23438 18.4375 3.75V4.6875H1.5625V3.75ZM17.5 17.1875H2.5C1.98438 17.1875 1.5625 16.7656 1.5625 16.25V5.3125H18.4375V16.25C18.4375 16.7656 18.0156 17.1875 17.5 17.1875Z" fill="#2F89F8"/>
<path d="M9.0625 15.3125H3.125C2.95312 15.3125 2.8125 15.4531 2.8125 15.625C2.8125 15.7969 2.95312 15.9375 3.125 15.9375H9.0625C9.23438 15.9375 9.375 15.7969 9.375 15.625C9.375 15.4531 9.23438 15.3125 9.0625 15.3125Z" fill="#2F89F8"/>
<path d="M9.0625 13.75H3.125C2.95312 13.75 2.8125 13.8906 2.8125 14.0625C2.8125 14.2344 2.95312 14.375 3.125 14.375H9.0625C9.23438 14.375 9.375 14.2344 9.375 14.0625C9.375 13.8906 9.23438 13.75 9.0625 13.75Z" fill="#2F89F8"/>
<path d="M9.0625 12.1875H3.125C2.95312 12.1875 2.8125 12.3281 2.8125 12.5C2.8125 12.6719 2.95312 12.8125 3.125 12.8125H9.0625C9.23438 12.8125 9.375 12.6719 9.375 12.5C9.375 12.3281 9.23438 12.1875 9.0625 12.1875Z" fill="#2F89F8"/>
<path d="M16.875 9.68745H10.9375C10.8531 9.68745 10.775 9.72183 10.7156 9.77808C10.6563 9.83433 10.625 9.91558 10.625 9.99995L10.6594 15.625C10.6594 15.7968 10.8 15.9343 10.9719 15.9343H16.875C17.0469 15.9343 17.1875 15.7937 17.1875 15.6218V9.99683C17.1875 9.82495 17.0469 9.68433 16.875 9.68433V9.68745ZM16.5625 10.3125V12.3718L15.5344 11.3437C15.4125 11.2218 15.2156 11.2218 15.0938 11.3437L13.7531 12.6843L12.725 11.6562C12.6031 11.5343 12.4063 11.5343 12.2844 11.6562L11.2719 12.6687L11.2594 10.3125H16.5688H16.5625ZM11.2719 13.5468L12.5 12.3187L15.4969 15.3156H11.2812L11.2719 13.55V13.5468ZM16.3812 15.3125L14.1937 13.125L15.3156 12.0031L16.5656 13.2531V15.3125H16.3812Z" fill="#2F89F8"/>
<path d="M16.875 8.125H10.9375C10.7656 8.125 10.625 8.26562 10.625 8.4375C10.625 8.60938 10.7656 8.75 10.9375 8.75H16.875C17.0469 8.75 17.1875 8.60938 17.1875 8.4375C17.1875 8.26562 17.0469 8.125 16.875 8.125Z" fill="#2F89F8"/>
<path d="M16.875 6.5625H10.9375C10.7656 6.5625 10.625 6.70312 10.625 6.875C10.625 7.04688 10.7656 7.1875 10.9375 7.1875H16.875C17.0469 7.1875 17.1875 7.04688 17.1875 6.875C17.1875 6.70312 17.0469 6.5625 16.875 6.5625Z" fill="#2F89F8"/>
<path d="M9.0625 6.5625H3.125C2.95312 6.5625 2.8125 6.70312 2.8125 6.875V10C2.8125 10.1719 2.95312 10.3125 3.125 10.3125H9.0625C9.23438 10.3125 9.375 10.1719 9.375 10V6.875C9.375 6.70312 9.23438 6.5625 9.0625 6.5625ZM8.75 9.6875H3.4375V7.1875H8.75V9.6875Z" fill="#2F89F8"/>
</svg>
