<svg width="20" height="20" viewBox="0 0 20 20" fill="none" xmlns="http://www.w3.org/2000/svg">
<g clip-path="url(#clip0_15_598)">
<path d="M3.75332 7.1864L3.75332 19.0589C3.75332 19.2316 3.61326 19.3713 3.44087 19.3713C3.26832 19.3713 3.12842 19.2316 3.12842 19.0589L3.12842 7.1864C3.12842 7.01355 3.26832 6.87395 3.44087 6.87395C3.61326 6.87395 3.75332 7.01355 3.75332 7.1864Z" fill="#2F89F8"/>
<path d="M4.37825 19.6844C4.37825 19.8572 4.23819 19.9968 4.0658 19.9968C3.54861 19.9968 3.12769 19.5759 3.12769 19.0589C3.12769 18.886 3.26774 18.7464 3.44014 18.7464C3.61268 18.7464 3.75259 18.886 3.75259 19.0589C3.75259 19.2316 3.89325 19.3719 4.0658 19.3719C4.23819 19.3719 4.37825 19.5115 4.37825 19.6844Z" fill="#2F89F8"/>
<path d="M16.8769 7.1864L16.8769 19.0589C16.8769 19.2316 16.7371 19.3713 16.5644 19.3713C16.3915 19.3713 16.252 19.2316 16.252 19.0589L16.252 7.1864C16.252 7.01355 16.3915 6.87395 16.5644 6.87395C16.7371 6.87395 16.8769 7.01355 16.8769 7.1864Z" fill="#2F89F8"/>
<path d="M16.8774 19.0589C16.8774 19.5759 16.4564 19.9968 15.9394 19.9968C15.7665 19.9968 15.627 19.8572 15.627 19.6844C15.627 19.5115 15.7665 19.3719 15.9394 19.3719C16.1121 19.3719 16.2525 19.2316 16.2525 19.0589C16.2525 18.886 16.3921 18.7464 16.5649 18.7464C16.7376 18.7464 16.8774 18.886 16.8774 19.0589Z" fill="#2F89F8"/>
<path d="M16.2519 19.6844C16.2519 19.8572 16.1122 19.9968 15.9395 19.9968L4.06575 19.9968C3.8932 19.9968 3.7533 19.8572 3.7533 19.6844C3.7533 19.5115 3.8932 19.3719 4.06575 19.3719L15.9395 19.3719C16.1122 19.3719 16.2519 19.5115 16.2519 19.6844Z" fill="#2F89F8"/>
<path d="M6.25295 4.68612C6.25295 4.85882 6.11289 4.99857 5.9405 4.99857C4.73403 4.99857 3.75259 5.98001 3.75259 7.18633C3.75259 7.35918 3.61268 7.49878 3.44014 7.49878C3.26774 7.49878 3.12769 7.35918 3.12769 7.18633C3.12769 5.63537 4.38939 4.37367 5.9405 4.37367C6.11289 4.37367 6.25295 4.51326 6.25295 4.68612Z" fill="#2F89F8"/>
<path d="M16.8774 7.18633C16.8774 7.35918 16.7377 7.49878 16.565 7.49878C16.3921 7.49878 16.2525 7.35918 16.2525 7.18633C16.2525 5.98001 15.2711 4.99857 14.0648 4.99857C13.8919 4.99857 13.7523 4.85882 13.7523 4.68612C13.7523 4.51327 13.8919 4.37367 14.0648 4.37367C15.6157 4.37367 16.8774 5.63537 16.8774 7.18633Z" fill="#2F89F8"/>
<path d="M8.43972 2.1874L8.43972 4.68609C8.43972 4.85879 8.29967 4.99854 8.12727 4.99854C7.95472 4.99854 7.81482 4.85879 7.81482 4.68609L7.81482 2.1874C7.81482 2.0147 7.95472 1.87495 8.12727 1.87495C8.29967 1.87495 8.43972 2.0147 8.43972 2.1874Z" fill="#2F89F8"/>
<path d="M11.5648 2.1874L11.5648 4.68609C11.5648 4.85879 11.4251 4.99854 11.2524 4.99854C11.0795 4.99854 10.9399 4.85879 10.9399 4.68609L10.9399 2.1874C10.9399 2.0147 11.0795 1.87495 11.2524 1.87495C11.4251 1.87495 11.5648 2.0147 11.5648 2.1874Z" fill="#2F89F8"/>
<path d="M8.43967 4.68609C8.43967 4.85879 8.29962 4.99854 8.12722 4.99854L5.94038 4.99854C5.76783 4.99854 5.62793 4.85879 5.62793 4.68609C5.62793 4.51323 5.76783 4.37364 5.94038 4.37364L8.12722 4.37364C8.29962 4.37364 8.43967 4.51323 8.43967 4.68609Z" fill="#2F89F8"/>
<path d="M14.3772 4.68609C14.3772 4.85879 14.2375 4.99854 14.0648 4.99854L11.3646 4.99854C11.1917 4.99854 11.0521 4.85879 11.0521 4.68609C11.0521 4.51323 11.1917 4.37364 11.3646 4.37364L14.0648 4.37364C14.2375 4.37364 14.3772 4.51323 14.3772 4.68609Z" fill="#2F89F8"/>
<path d="M12.1894 0.312545L12.1894 2.18755C12.1894 2.3604 12.0497 2.5 11.877 2.5L7.503 2.5C7.33045 2.5 7.19055 2.3604 7.19055 2.18755L7.19055 0.312545C7.19055 0.139691 7.33045 9.51229e-05 7.503 9.51154e-05L11.877 9.49242e-05C12.0497 9.49166e-05 12.1894 0.139691 12.1894 0.312545ZM11.5645 1.8751L11.5645 0.624995L7.81545 0.624995L7.81545 1.8751L11.5645 1.8751Z" fill="#2F89F8"/>
</g>
<defs>
<clipPath id="clip0_15_598">
<rect width="20" height="20" fill="white" transform="translate(0 20) rotate(-90)"/>
</clipPath>
</defs>
</svg>
