<svg width="40" height="40" viewBox="0 0 40 40" fill="none" xmlns="http://www.w3.org/2000/svg">
<path d="M9.39978 19.4916H21.7665C22.2071 19.4916 22.5644 19.1343 22.5644 18.6937C22.5644 18.2532 22.2071 17.8959 21.7665 17.8959H9.39978C8.95897 17.8959 8.60193 18.2532 8.60193 18.6937C8.60193 19.1343 8.95897 19.4916 9.39978 19.4916Z" fill="#2F89F8"/>
<path d="M16.8036 23.082H9.39978C8.95897 23.082 8.60193 23.4393 8.60193 23.8798C8.60193 24.3204 8.95897 24.6777 9.39978 24.6777H16.8036C17.2442 24.6777 17.6015 24.3204 17.6015 23.8798C17.6015 23.4393 17.2442 23.082 16.8036 23.082Z" fill="#2F89F8"/>
<path d="M30.6544 21.3105V7.5238C30.6539 5.32073 28.868 3.53528 26.6651 3.53453H23.3939V2.01062C23.3939 1.56981 23.0369 1.21277 22.5961 1.21277C22.1555 1.21277 21.7982 1.56981 21.7982 2.01062V3.53453H10.9474V2.01062C10.9474 1.56981 10.5903 1.21277 10.1495 1.21277C9.70896 1.21277 9.35167 1.56981 9.35167 2.01062V3.53453H6.08046C3.87763 3.53528 2.09218 5.32073 2.09119 7.5238V29.1377C2.09218 31.3405 3.87763 33.126 6.08046 33.127H20.849C22.3841 37.0589 26.5011 39.3413 30.6492 38.5604C34.7973 37.7797 37.8027 34.1567 37.8034 29.9356C37.8112 25.6511 34.7235 22.0767 30.6544 21.3105ZM6.08869 5.13024H9.3599V6.65414C9.3599 7.09471 9.71694 7.452 10.1578 7.452C10.5983 7.452 10.9556 7.09471 10.9556 6.65414V5.13024H21.8064V6.65414C21.8064 7.09471 22.1635 7.452 22.6043 7.452C23.0449 7.452 23.4022 7.09471 23.4022 6.65414V5.13024H26.6734C27.9936 5.13398 29.0629 6.20335 29.0669 7.5238V9.45461H3.69512V7.5238C3.69612 6.20211 4.76724 5.13124 6.08869 5.13024ZM6.08869 31.5313C4.76824 31.5275 3.69886 30.4579 3.69512 29.1377V11.0423H29.0587V21.1592H29.0348C26.429 21.1631 23.9594 22.3228 22.2924 24.3259C20.6251 26.3288 19.933 28.9682 20.402 31.5313H6.08869ZM29.0348 37.1163C25.0692 37.1163 21.8541 33.9014 21.8541 29.9356C21.8541 25.9697 25.0692 22.7549 29.0348 22.7549C33.0006 22.7549 36.2155 25.9697 36.2155 29.9356C36.2095 33.8989 32.9981 37.1103 29.0348 37.1163Z" fill="#2F89F8"/>
<path d="M32.7288 27.0712L27.9898 31.595L25.5402 29.1377C25.2297 28.827 24.7261 28.827 24.4154 29.1377C24.1045 29.4483 24.1045 29.952 24.4154 30.2626L27.4231 33.2705C27.5727 33.4211 27.7772 33.5047 27.9898 33.5019C28.1958 33.5037 28.3937 33.4234 28.5401 33.2783L33.8379 28.2119C33.9904 28.066 34.0787 27.8658 34.0834 27.6546C34.0877 27.4435 34.0082 27.2393 33.8618 27.0872C33.5511 26.7755 33.0482 26.7683 32.7288 27.0712Z" fill="#2F89F8"/>
</svg>
