<svg width="25" height="25" viewBox="0 0 25 25" fill="none" xmlns="http://www.w3.org/2000/svg">
<g clip-path="url(#clip0_128_6369)">
<path d="M16.9492 8.03338C16.8475 7.93128 16.7092 7.87392 16.5649 7.87392C16.4207 7.87392 16.2826 7.93128 16.1808 8.03338L12.4902 11.7236L8.60915 7.84251C8.39694 7.6303 8.05276 7.6303 7.84072 7.84251C7.62851 8.05489 7.62851 8.3989 7.84072 8.61128L11.7218 12.4924L7.84072 16.3733C7.73862 16.475 7.68126 16.6135 7.68126 16.7578C7.68126 16.9019 7.73862 17.04 7.84072 17.1421C7.94298 17.2448 8.08263 17.3019 8.22758 17.3C8.37218 17.2993 8.51098 17.2428 8.61478 17.1421L12.4959 13.261L16.1861 16.9512C16.2884 17.0541 16.428 17.1112 16.5731 17.1093C16.7177 17.1086 16.8565 17.0519 16.9602 16.9512C17.0623 16.8493 17.1196 16.711 17.1196 16.5669C17.1196 16.4228 17.0623 16.2843 16.9602 16.1826L13.2698 12.4924L16.9602 8.80198C17.1644 8.58465 17.1594 8.24474 16.9492 8.03338Z" fill="#87859F"/>
<path d="M12.5066 0.783725C7.76645 0.782872 3.49269 3.63808 1.67874 8.01751C-0.134873 12.3971 0.868307 17.438 4.22118 20.7888C8.79729 25.3649 16.2163 25.3649 20.7923 20.7888C25.3682 16.213 25.3682 8.79397 20.7923 4.21786C18.5996 2.01277 15.6162 0.776214 12.5066 0.783725ZM20.0237 20.0203C15.881 24.1631 9.13789 24.1631 4.98978 20.0203C0.839455 15.8692 0.839796 9.13935 4.99097 4.98834C9.14181 0.837845 15.8716 0.837845 20.0226 4.98834C24.1735 9.13935 24.1741 15.8692 20.0237 20.0203Z" fill="#87859F"/>
</g>
<defs>
<clipPath id="clip0_128_6369">
<rect width="25" height="25" fill="white"/>
</clipPath>
</defs>
</svg>
