<svg width="40" height="40" viewBox="0 0 40 40" fill="none" xmlns="http://www.w3.org/2000/svg">
<path d="M36.0389 19.1708C36.0389 10.3229 28.8427 3.11804 19.9861 3.11804C11.1298 3.11804 3.93359 10.3142 3.93359 19.1708C3.93945 25.1728 7.28963 30.6714 12.6206 33.429L8.85297 37.1966C8.68556 37.3634 8.59181 37.59 8.59181 37.826C8.59181 38.0621 8.68556 38.2886 8.85297 38.4555C9.02039 38.6243 9.24918 38.7175 9.48663 38.7141C9.72351 38.7136 9.95091 38.6204 10.1208 38.4555L14.3703 34.2055C16.1666 34.8774 18.0684 35.2222 19.9861 35.2236C21.9044 35.2264 23.8067 34.8818 25.6019 34.2055L29.8517 38.4555C30.0191 38.6243 30.2479 38.7175 30.4853 38.7141C30.7225 38.7136 30.9496 38.6204 31.1195 38.4555C31.2866 38.2886 31.3807 38.0621 31.3807 37.826C31.3807 37.59 31.2866 37.3634 31.1195 37.1966L27.3519 33.429C32.5032 30.7504 36.0389 25.3667 36.0389 19.1708ZM19.9861 33.429C12.1206 33.429 5.71904 27.0274 5.71904 19.1619C5.71904 11.2964 12.1206 4.90376 19.9861 4.90376C27.8516 4.90376 34.2535 11.305 34.2535 19.1708C34.2535 27.0366 27.8516 33.429 19.9861 33.429Z" fill="#2F89F8"/>
<path d="M26.8248 22.4652L20.8789 19.2247V10.4303C20.8789 9.93727 20.4794 9.53772 19.9861 9.53772C19.4931 9.53772 19.0935 9.93727 19.0935 10.4303V19.7601C19.0935 20.0871 19.2712 20.3879 19.5575 20.5456L25.968 24.0456C26.1002 24.1153 26.247 24.1522 26.3965 24.1527C26.807 24.1524 27.1652 23.8734 27.2665 23.4755C27.3675 23.0777 27.1859 22.6616 26.8248 22.4652Z" fill="#2F89F8"/>
<path d="M37.5653 8.38561L30.6638 1.48408C30.3164 1.13698 29.7531 1.13698 29.4052 1.48408C29.0575 1.83202 29.0575 2.39535 29.4052 2.74329L36.3067 9.64454C36.4741 9.81307 36.7029 9.90654 36.9403 9.90347C37.1772 9.90236 37.4046 9.80972 37.5745 9.64454C37.9155 9.2927 37.9116 8.73271 37.5653 8.38561Z" fill="#2F89F8"/>
<path d="M10.5759 1.47546C10.409 1.30804 10.1827 1.21429 9.9467 1.21429C9.71009 1.21429 9.48381 1.30804 9.31723 1.47546L2.4157 8.37699C2.24857 8.54356 2.15454 8.77012 2.15454 9.00617C2.15454 9.2425 2.24857 9.46879 2.4157 9.63564C2.58311 9.80445 2.81191 9.89792 3.04963 9.89485C3.28652 9.89373 3.51364 9.80082 3.68356 9.63564L10.5848 2.73411C10.9261 2.38255 10.9221 1.82228 10.5759 1.47546Z" fill="#2F89F8"/>
</svg>
