<svg width="20" height="20" viewBox="0 0 20 20" fill="none" xmlns="http://www.w3.org/2000/svg">
<path d="M15.5 8.30062L12.3841 7.05437C12.3259 7.03142 12.2761 6.99147 12.241 6.93973C12.2059 6.88799 12.1873 6.82688 12.1875 6.76437V5.625H14.375V5.9375C14.375 6.02038 14.4079 6.09987 14.4665 6.15847C14.5251 6.21708 14.6046 6.25 14.6875 6.25H15.9375C16.0204 6.25 16.0999 6.21708 16.1585 6.15847C16.2171 6.09987 16.25 6.02038 16.25 5.9375V5.3125C16.2495 4.89825 16.0847 4.50111 15.7918 4.20819C15.4989 3.91528 15.1018 3.7505 14.6875 3.75H11.875V2.8125C11.875 2.72962 11.8421 2.65013 11.7835 2.59153C11.7249 2.53292 11.6454 2.5 11.5625 2.5H11.25V0.9375C11.25 0.85462 11.2171 0.775134 11.1585 0.716529C11.0999 0.657924 11.0204 0.625 10.9375 0.625H9.06251C8.97963 0.625 8.90015 0.657924 8.84154 0.716529C8.78294 0.775134 8.75001 0.85462 8.75001 0.9375V2.5H8.43751C8.35463 2.5 8.27515 2.53292 8.21654 2.59153C8.15794 2.65013 8.12501 2.72962 8.12501 2.8125V3.75H6.56251C6.47963 3.75 6.40015 3.78292 6.34154 3.84153C6.28294 3.90013 6.25001 3.97962 6.25001 4.0625V5.3125C6.25001 5.39538 6.28294 5.47487 6.34154 5.53347C6.40015 5.59208 6.47963 5.625 6.56251 5.625H7.81251V6.76437C7.81273 6.82688 7.79408 6.88799 7.75902 6.93973C7.72395 6.99147 7.67409 7.03142 7.61595 7.05437L4.50001 8.30062C4.09328 8.46187 3.74456 8.7419 3.49929 9.10422C3.25403 9.46655 3.1236 9.89435 3.12501 10.3319V17.8125C3.12551 18.2267 3.29029 18.6239 3.58321 18.9168C3.87612 19.2097 4.27326 19.3745 4.68751 19.375H15.3125C15.7268 19.3745 16.1239 19.2097 16.4168 18.9168C16.7097 18.6239 16.8745 18.2267 16.875 17.8125V10.3319C16.8764 9.89435 16.746 9.46655 16.5007 9.10422C16.2555 8.7419 15.9067 8.46187 15.5 8.30062ZM9.37501 1.25H10.625V2.5H9.37501V1.25ZM8.75001 3.125H11.25V3.75H8.75001V3.125ZM6.87501 4.375H14.6875C14.9362 4.375 15.1746 4.47377 15.3504 4.64959C15.5262 4.8254 15.625 5.06386 15.625 5.3125V5.625H15C15 5.45924 14.9342 5.30027 14.817 5.18306C14.6997 5.06585 14.5408 5 14.375 5H6.87501V4.375ZM4.7322 8.88125L7.84814 7.635C8.02246 7.56588 8.17193 7.44585 8.27705 7.29056C8.38218 7.13526 8.4381 6.9519 8.43751 6.76437V5.625H11.5625V6.76437C11.5619 6.9519 11.6178 7.13526 11.723 7.29056C11.8281 7.44585 11.9776 7.56588 12.1519 7.635L15.2678 8.88125C15.5583 8.99636 15.8074 9.19633 15.9826 9.45509C16.1578 9.71385 16.251 10.0194 16.25 10.3319V10.625H3.75001V10.3319C3.74901 10.0194 3.84219 9.71385 4.01739 9.45509C4.19259 9.19633 4.44168 8.99636 4.7322 8.88125ZM16.25 11.25V15.625H3.75001V11.25H16.25ZM15.3125 18.75H4.68751C4.43887 18.75 4.20041 18.6512 4.0246 18.4754C3.84878 18.2996 3.75001 18.0611 3.75001 17.8125V16.25H16.25V17.8125C16.25 18.0611 16.1512 18.2996 15.9754 18.4754C15.7996 18.6512 15.5612 18.75 15.3125 18.75Z" fill="#2F89F8"/>
</svg>
