<svg width="80" height="80" viewBox="0 0 80 80" fill="none" xmlns="http://www.w3.org/2000/svg">
<path d="M77.125 25.3125H34.8027C34.5809 25.3125 34.3664 25.3911 34.1971 25.5343C34.0278 25.6776 33.9148 25.8762 33.8781 26.0948L29.2536 53.5938C29.2309 53.7282 29.2377 53.866 29.2737 53.9975C29.3097 54.129 29.374 54.2511 29.462 54.3552C29.55 54.4593 29.6597 54.543 29.7834 54.6004C29.9071 54.6578 30.0418 54.6875 30.1781 54.6875H72.5C72.7217 54.6875 72.9363 54.6089 73.1055 54.4657C73.2748 54.3224 73.3878 54.1238 73.4245 53.9052L78.0492 26.4062C78.0719 26.2718 78.0651 26.134 78.0291 26.0025C77.9931 25.871 77.9288 25.7489 77.8408 25.6448C77.7528 25.5407 77.6431 25.457 77.5194 25.3996C77.3957 25.3422 77.261 25.3125 77.1247 25.3125H77.125ZM74.5283 27.1875L56.1794 40.5937C55.4905 41.0971 54.6491 41.3473 53.7972 41.3021C52.9453 41.257 52.135 40.9192 51.5033 40.3459L37 27.1875H74.5283ZM32.4075 52.8125L35.4728 49.6802C35.6468 49.5025 35.743 49.2629 35.7403 49.0143C35.7377 48.7656 35.6364 48.5282 35.4587 48.3543C35.3707 48.2682 35.2666 48.2002 35.1523 48.1543C35.0381 48.1084 34.9159 48.0855 34.7928 48.0868C34.5442 48.0894 34.3068 48.1907 34.1328 48.3684L31.5981 50.9581L35.4122 28.2797L45.1492 37.1128L38.5048 43.9014C38.3309 44.0791 38.2347 44.3186 38.2374 44.5672C38.24 44.8159 38.3414 45.0533 38.5191 45.2272C38.6968 45.4011 38.9363 45.4973 39.1849 45.4947C39.4335 45.492 39.6709 45.3907 39.8448 45.213L46.5389 38.3736L50.2434 41.7344C51.195 42.5975 52.4151 43.106 53.698 43.1739C54.9809 43.2418 56.248 42.8651 57.2853 42.1072L61.6539 38.9161L70.7644 52.8125H32.4075ZM71.9723 51.2344L63.1698 37.8081L75.7792 28.5958L71.9723 51.2344Z" fill="#2F89F8"/>
<path d="M25.9834 42.1875H24.0615C23.8129 42.1875 23.5744 42.2863 23.3986 42.4621C23.2228 42.6379 23.124 42.8764 23.124 43.125C23.124 43.3736 23.2228 43.6121 23.3986 43.7879C23.5744 43.9637 23.8129 44.0625 24.0615 44.0625H25.9834C26.232 44.0625 26.4705 43.9637 26.6463 43.7879C26.8221 43.6121 26.9209 43.3736 26.9209 43.125C26.9209 42.8764 26.8221 42.6379 26.6463 42.4621C26.4705 42.2863 26.232 42.1875 25.9834 42.1875Z" fill="#2F89F8"/>
<path d="M13.8281 43.2812C13.8281 43.5299 13.9269 43.7683 14.1027 43.9442C14.2785 44.12 14.517 44.2188 14.7656 44.2188H20.6516C20.9002 44.2188 21.1387 44.12 21.3145 43.9442C21.4903 43.7683 21.5891 43.5299 21.5891 43.2812C21.5891 43.0326 21.4903 42.7942 21.3145 42.6183C21.1387 42.4425 20.9002 42.3438 20.6516 42.3438H14.7656C14.517 42.3438 14.2785 42.4425 14.1027 42.6183C13.9269 42.7942 13.8281 43.0326 13.8281 43.2812Z" fill="#2F89F8"/>
<path d="M7.37951 42.3438H4.10388C3.85524 42.3438 3.61678 42.4425 3.44097 42.6183C3.26515 42.7942 3.16638 43.0326 3.16638 43.2812C3.16638 43.5299 3.26515 43.7683 3.44097 43.9442C3.61678 44.12 3.85524 44.2188 4.10388 44.2188H7.37951C7.62815 44.2188 7.8666 44.12 8.04242 43.9442C8.21824 43.7683 8.31701 43.5299 8.31701 43.2812C8.31701 43.0326 8.21824 42.7942 8.04242 42.6183C7.8666 42.4425 7.62815 42.3438 7.37951 42.3438Z" fill="#2F89F8"/>
<path d="M9.77954 43.2812C9.77954 43.5299 9.87831 43.7683 10.0541 43.9442C10.2299 44.12 10.4684 44.2188 10.717 44.2188H11.322C11.5707 44.2188 11.8091 44.12 11.985 43.9442C12.1608 43.7683 12.2595 43.5299 12.2595 43.2812C12.2595 43.0326 12.1608 42.7942 11.985 42.6183C11.8091 42.4425 11.5707 42.3438 11.322 42.3438H10.717C10.4684 42.3438 10.2299 42.4425 10.0541 42.6183C9.87831 42.7942 9.77954 43.0326 9.77954 43.2812Z" fill="#2F89F8"/>
<path d="M27.4964 35.7812H18.6436C18.3949 35.7812 18.1565 35.88 17.9806 36.0558C17.8048 36.2317 17.7061 36.4701 17.7061 36.7188C17.7061 36.9674 17.8048 37.2058 17.9806 37.3817C18.1565 37.5575 18.3949 37.6562 18.6436 37.6562H27.4964C27.745 37.6562 27.9835 37.5575 28.1593 37.3817C28.3351 37.2058 28.4339 36.9674 28.4339 36.7188C28.4339 36.4701 28.3351 36.2317 28.1593 36.0558C27.9835 35.88 27.745 35.7812 27.4964 35.7812Z" fill="#2F89F8"/>
<path d="M13.0156 37.8125H15.2344C15.483 37.8125 15.7215 37.7137 15.8973 37.5379C16.0731 37.3621 16.1719 37.1236 16.1719 36.875C16.1719 36.6264 16.0731 36.3879 15.8973 36.2121C15.7215 36.0363 15.483 35.9375 15.2344 35.9375H13.0156C12.767 35.9375 12.5285 36.0363 12.3527 36.2121C12.1769 36.3879 12.0781 36.6264 12.0781 36.875C12.0781 37.1236 12.1769 37.3621 12.3527 37.5379C12.5285 37.7137 12.767 37.8125 13.0156 37.8125Z" fill="#2F89F8"/>
<path d="M6.09216 37.8125H9.41669C9.66533 37.8125 9.90379 37.7137 10.0796 37.5379C10.2554 37.3621 10.3542 37.1236 10.3542 36.875C10.3542 36.6264 10.2554 36.3879 10.0796 36.2121C9.90379 36.0363 9.66533 35.9375 9.41669 35.9375H6.09216C5.84352 35.9375 5.60507 36.0363 5.42925 36.2121C5.25344 36.3879 5.15466 36.6264 5.15466 36.875C5.15466 37.1236 5.25344 37.3621 5.42925 37.5379C5.60507 37.7137 5.84352 37.8125 6.09216 37.8125Z" fill="#2F89F8"/>
<path d="M26.3438 31.25H29.5448C29.7935 31.25 30.0319 31.1512 30.2078 30.9754C30.3836 30.7996 30.4823 30.5611 30.4823 30.3125C30.4823 30.0639 30.3836 29.8254 30.2078 29.6496C30.0319 29.4738 29.7935 29.375 29.5448 29.375H26.3438C26.0951 29.375 25.8567 29.4738 25.6808 29.6496C25.505 29.8254 25.4062 30.0639 25.4062 30.3125C25.4062 30.5611 25.505 30.7996 25.6808 30.9754C25.8567 31.1512 26.0951 31.25 26.3438 31.25Z" fill="#2F89F8"/>
<path d="M13.6406 31.25H22.9344C23.183 31.25 23.4215 31.1512 23.5973 30.9754C23.7731 30.7996 23.8719 30.5611 23.8719 30.3125C23.8719 30.0639 23.7731 29.8254 23.5973 29.6496C23.4215 29.4738 23.183 29.375 22.9344 29.375H13.6406C13.5175 29.375 13.3956 29.3992 13.2819 29.4464C13.1681 29.4935 13.0648 29.5625 12.9777 29.6496C12.8907 29.7366 12.8216 29.84 12.7745 29.9537C12.7274 30.0675 12.7031 30.1894 12.7031 30.3125C12.7031 30.4356 12.7274 30.5575 12.7745 30.6713C12.8216 30.785 12.8907 30.8884 12.9777 30.9754C13.0648 31.0625 13.1681 31.1315 13.2819 31.1786C13.3956 31.2258 13.5175 31.25 13.6406 31.25Z" fill="#2F89F8"/>
<path d="M7.98059 31.25H10.1979C10.4466 31.25 10.685 31.1512 10.8608 30.9754C11.0367 30.7996 11.1354 30.5611 11.1354 30.3125C11.1354 30.0639 11.0367 29.8254 10.8608 29.6496C10.685 29.4738 10.4466 29.375 10.1979 29.375H7.98059C7.85748 29.375 7.73557 29.3992 7.62183 29.4464C7.50808 29.4935 7.40473 29.5625 7.31768 29.6496C7.23062 29.7366 7.16157 29.84 7.11445 29.9537C7.06734 30.0675 7.04309 30.1894 7.04309 30.3125C7.04309 30.4356 7.06734 30.5575 7.11445 30.6713C7.16157 30.785 7.23062 30.8884 7.31768 30.9754C7.40473 31.0625 7.50808 31.1315 7.62183 31.1786C7.73557 31.2258 7.85748 31.25 7.98059 31.25Z" fill="#2F89F8"/>
<path d="M24.0625 48.75H20.5364C20.2877 48.75 20.0493 48.8488 19.8735 49.0246C19.6976 49.2004 19.5989 49.4389 19.5989 49.6875C19.5989 49.9361 19.6976 50.1746 19.8735 50.3504C20.0493 50.5262 20.2877 50.625 20.5364 50.625H24.0625C24.3111 50.625 24.5496 50.5262 24.7254 50.3504C24.9012 50.1746 25 49.9361 25 49.6875C25 49.4389 24.9012 49.2004 24.7254 49.0246C24.5496 48.8488 24.3111 48.75 24.0625 48.75Z" fill="#2F89F8"/>
<path d="M16.4925 48.75H9.8645C9.61586 48.75 9.3774 48.8488 9.20159 49.0246C9.02577 49.2004 8.927 49.4389 8.927 49.6875C8.927 49.9361 9.02577 50.1746 9.20159 50.3504C9.3774 50.5262 9.61586 50.625 9.8645 50.625H16.4925C16.7411 50.625 16.9796 50.5262 17.1554 50.3504C17.3312 50.1746 17.43 49.9361 17.43 49.6875C17.43 49.4389 17.3312 49.2004 17.1554 49.0246C16.9796 48.8488 16.7411 48.75 16.4925 48.75Z" fill="#2F89F8"/>
<path d="M5.95312 48.75H2.875C2.62636 48.75 2.3879 48.8488 2.21209 49.0246C2.03627 49.2004 1.9375 49.4389 1.9375 49.6875C1.9375 49.9361 2.03627 50.1746 2.21209 50.3504C2.3879 50.5262 2.62636 50.625 2.875 50.625H5.95312C6.20177 50.625 6.44022 50.5262 6.61604 50.3504C6.79185 50.1746 6.89062 49.9361 6.89062 49.6875C6.89062 49.4389 6.79185 49.2004 6.61604 49.0246C6.44022 48.8488 6.20177 48.75 5.95312 48.75Z" fill="#2F89F8"/>
</svg>
