<svg width="50" height="50" viewBox="0 0 50 50" fill="none" xmlns="http://www.w3.org/2000/svg">
<path d="M9.04074 37.233C8.69279 37.5122 4.25861 41.2705 4.3715 45.2149C4.4051 48.0973 6.45285 49.9451 9.04074 50C11.6286 49.945 13.6794 48.0973 13.71 45.2149C13.8229 41.2704 9.39172 37.5122 9.04074 37.233ZM11.586 45.1554L11.5829 45.1722V45.1906C11.5738 46.0038 11.3174 46.6828 10.8413 47.1529C10.3957 47.5923 9.75793 47.8471 9.04074 47.8715C8.32658 47.8471 7.68879 47.5923 7.24328 47.1529C6.76721 46.6828 6.50783 46.0038 6.49865 45.1906V45.1722V45.1554C6.44982 43.4158 7.86584 41.4627 9.04074 40.178C10.2188 41.4627 11.6348 43.4158 11.586 45.1554Z" fill="#2F89F8"/>
<path d="M40.9562 9.57334C39.7812 9.57334 38.8291 10.5271 38.8291 11.702V13.829H33.4336C32.4906 12.1963 31.0196 10.9085 29.2558 10.1929V7.44629H32.4448C34.2088 7.44629 35.637 6.01807 35.637 4.2541C35.637 2.4917 34.2088 1.06348 32.4448 1.06348H27.1256C27.1256 0.476074 26.6495 0 26.0636 0C25.4746 0 24.9985 0.476074 24.9985 1.06357H19.6793C17.9185 1.06357 16.4871 2.4918 16.4871 4.2542C16.4871 6.01816 17.9184 7.44639 19.6793 7.44639H22.8715V10.193C21.1075 10.9086 19.6366 12.1965 18.6905 13.8291H12.233C8.11924 13.8291 4.78672 17.1632 4.78672 21.277V28.7232C3.61182 28.7232 2.65967 29.6754 2.65967 30.8503V32.9789C2.65967 34.1538 3.61182 35.106 4.78672 35.106H13.298C14.4729 35.106 15.4251 34.1538 15.4251 32.9789V30.8503C15.4251 29.6754 14.4729 28.7232 13.298 28.7232V28.647L13.3072 24.4706C13.3072 23.3018 14.2563 22.3404 15.4252 22.3404H16.5727H18.6906C20.1616 24.8841 22.9143 26.5946 26.0637 26.5946C29.2131 26.5946 31.9627 24.8841 33.4337 22.3404H38.8292V24.4675C38.8292 25.6424 39.7813 26.5945 40.9562 26.5945H47.3405V9.57334H40.9562ZM13.298 32.9788H4.78672V30.8502H13.298V32.9788ZM17.8208 20.2118H16.5726H15.3488V20.2134C13.0417 20.2546 11.1801 22.1482 11.1801 24.4706L11.1709 28.6424V28.6454V28.647V28.7232H6.91377V21.277C6.91377 18.3427 9.30029 15.9577 12.233 15.9577H17.8208C17.6469 16.6367 17.5522 17.3493 17.5522 18.0848C17.5522 18.8188 17.6469 19.5328 17.8208 20.2118ZM19.6793 5.31924C19.0934 5.31924 18.6173 4.8416 18.6173 4.2542C18.6173 3.66826 19.0934 3.19063 19.6793 3.19063H32.4448C33.0338 3.19063 33.5099 3.66826 33.5099 4.2542C33.5099 4.8417 33.0338 5.31924 32.4448 5.31924H19.6793ZM27.1255 7.44629V9.64053C26.7775 9.59629 26.4235 9.57334 26.0635 9.57334C25.7034 9.57334 25.3463 9.59619 24.9984 9.64053V7.44629H27.1255ZM26.0636 24.4675C22.5449 24.4675 19.6793 21.6049 19.6793 18.0848C19.6793 14.5646 22.5449 11.7021 26.0636 11.7021C29.5822 11.7021 32.4448 14.5646 32.4448 18.0848C32.4448 21.6049 29.5822 24.4675 26.0636 24.4675ZM38.8291 20.2119H34.3063V20.2118C34.4803 19.5328 34.5749 18.8187 34.5749 18.0848C34.5749 17.3493 34.4803 16.6367 34.3063 15.9577H38.8291V20.2119ZM45.2133 24.4675H40.9561V11.702H45.2133V24.4675Z" fill="#2F89F8"/>
</svg>
