<svg width="15" height="15" viewBox="0 0 15 15" fill="none" xmlns="http://www.w3.org/2000/svg">
<path d="M0.013709 2.85612C-0.0458549 3.57859 0.087045 4.32555 0.444429 5.27736C1.01459 6.81016 1.87672 8.23951 3.1582 9.77608C4.68018 11.5971 6.57539 13.0739 8.71728 14.1075C9.50555 14.4826 10.5577 14.9226 11.7046 14.9955C11.769 15 11.8347 15 11.8926 15C12.5368 15 13.0558 14.7808 13.4791 14.3303C13.4821 14.3272 13.4848 14.3241 13.4876 14.3209C13.7077 14.0689 13.941 13.8288 14.1863 13.6011L14.2693 13.5208C14.3998 13.3946 14.5229 13.2755 14.646 13.1436C15.1213 12.651 15.1177 12.0964 14.6372 11.6228L12.592 9.58801C12.4689 9.45492 12.2145 9.23723 11.8669 9.23723C11.611 9.23723 11.3529 9.35952 11.1203 9.59075L9.85244 10.8521C9.80372 10.9007 9.67426 11.0295 9.47612 11.0295C9.39073 11.0281 9.30707 11.0069 9.23149 10.9672L9.22719 10.9644C9.21703 10.9581 9.20687 10.9521 9.19654 10.9464C9.08069 10.8755 8.95209 10.8115 8.81489 10.7433C8.66701 10.6727 8.52309 10.5948 8.38313 10.5097C7.21854 9.77693 6.16291 8.82067 5.15601 7.58675C5.15308 7.58316 5.15015 7.57973 5.14723 7.57631C4.60168 6.88621 4.24671 6.31071 3.99795 5.71345L3.99107 5.69306C3.92496 5.48427 3.9229 5.31607 4.11863 5.12132C4.12156 5.11841 4.12448 5.11533 4.12741 5.11225L4.12982 5.10985C4.44709 4.82689 4.73407 4.54273 5.06701 4.2036C5.14 4.13337 5.21161 4.06126 5.28099 3.99138C5.31576 3.95644 5.35088 3.92115 5.38617 3.88587C5.63665 3.63683 5.75836 3.38898 5.75836 3.12829C5.75836 2.8676 5.63665 2.61975 5.38617 2.37071L4.3772 1.367C4.31781 1.30602 4.25876 1.24607 4.19971 1.18664C4.14067 1.12738 4.08248 1.06828 4.02515 1.00936C3.77932 0.756723 3.5705 0.54656 3.35187 0.343077L3.34395 0.335198C3.1236 0.115958 2.87175 0 2.61593 0C2.36218 0 2.10465 0.115273 1.87155 0.333314L1.86553 0.339138L0.601774 1.59635C0.256785 1.93017 0.0474505 2.37859 0.013709 2.85612ZM11.8666 9.76357C12.0203 9.76357 12.1544 9.89169 12.205 9.94685C12.2076 9.94976 12.2105 9.95284 12.2133 9.95558L14.2638 11.9957C14.5396 12.2677 14.543 12.4852 14.2739 12.7692C14.2631 12.779 14.2529 12.7896 14.2438 12.8011C14.2221 12.8242 14.1994 12.8465 14.1772 12.8691L11.3753 10.0811L11.4939 9.96278C11.5689 9.88861 11.7168 9.76357 11.8666 9.76357ZM2.61593 0.526178C2.75813 0.526178 2.88707 0.624665 2.97004 0.707222L2.98106 0.718356C2.9833 0.720411 2.98554 0.722638 2.9876 0.724522C3.19935 0.921496 3.40369 1.12721 3.64522 1.37539C3.70375 1.43534 3.7628 1.49546 3.82288 1.55575C3.88072 1.61433 3.93908 1.67325 4.00036 1.73611L5.01209 2.74273C5.15635 2.8861 5.22934 3.01593 5.22934 3.12829C5.22934 3.24082 5.15635 3.37048 5.01209 3.51385C4.97594 3.54981 4.94013 3.58561 4.90467 3.62158L4.89382 3.63254L2.09845 0.85127L2.23634 0.714074C2.3689 0.591093 2.50007 0.526178 2.61593 0.526178ZM1.72454 1.22347L4.52095 4.00577C4.26306 4.2656 4.02739 4.49478 3.77364 4.72104C3.77295 4.72155 3.77226 4.72224 3.77158 4.72275C3.7566 4.73508 3.74265 4.74879 3.73026 4.76386C3.28594 5.21896 3.43674 5.69426 3.48787 5.85561L3.49906 5.88884C3.50096 5.89466 3.50319 5.90031 3.50543 5.90597C3.77502 6.55564 4.15547 7.17414 4.7394 7.91168C4.74388 7.91699 4.74836 7.92212 4.75266 7.92709C5.79417 9.20194 6.88939 10.1923 8.10046 10.9543C8.25557 11.0492 8.4155 11.1361 8.57956 11.2145C8.70747 11.2782 8.82831 11.3382 8.92541 11.3981C8.93092 11.4015 8.93643 11.4048 8.94228 11.4077L8.9471 11.4108C8.96156 11.4195 8.97619 11.4283 8.99117 11.4358C9.14094 11.5136 9.30724 11.5547 9.47612 11.5559C9.75293 11.5559 10.0053 11.4444 10.2265 11.2244L11.0012 10.4535L13.8014 13.2394C13.5513 13.4723 13.3135 13.7178 13.089 13.9752C12.7628 14.3198 12.3939 14.4737 11.8928 14.4737C11.8406 14.4737 11.7867 14.4737 11.7392 14.4706C10.682 14.4033 9.69079 13.9876 8.94658 13.6333C6.87303 12.6324 5.03808 11.2025 3.56448 9.43934C2.3231 7.95073 1.48938 6.5702 0.940221 5.09409C0.611242 4.21764 0.488155 3.54074 0.540833 2.90014C0.564245 2.54645 0.719353 2.21433 0.975856 1.96854L1.72454 1.22347Z" fill="#2F89F8"/>
</svg>
