<svg width="40" height="32" viewBox="0 0 40 32" fill="none" xmlns="http://www.w3.org/2000/svg">
<path d="M24.3756 27.2482H10.6067C10.4409 27.2482 10.2819 27.1823 10.1647 27.0651C10.0475 26.9479 9.98167 26.7889 9.98167 26.6232C9.98167 26.4574 10.0475 26.2984 10.1647 26.1812C10.2819 26.064 10.4409 25.9982 10.6067 25.9982H23.7506V2.24817H1.25061V25.9982H3.76952C3.93528 25.9982 4.09425 26.064 4.21146 26.1812C4.32867 26.2984 4.39452 26.4574 4.39452 26.6232C4.39452 26.7889 4.32867 26.9479 4.21146 27.0651C4.09425 27.1823 3.93528 27.2482 3.76952 27.2482H0.62561C0.543521 27.2482 0.462227 27.2321 0.386377 27.2007C0.310527 27.1693 0.241609 27.1233 0.183562 27.0652C0.125516 27.0072 0.079481 26.9383 0.0480887 26.8624C0.0166964 26.7866 0.000562803 26.7053 0.000610457 26.6232V1.62317C0.000562803 1.54108 0.0166964 1.45979 0.0480887 1.38394C0.079481 1.30809 0.125516 1.23917 0.183562 1.18112C0.241609 1.12307 0.310527 1.07704 0.386377 1.04565C0.462227 1.01426 0.543521 0.998121 0.62561 0.998169H24.3756C24.4577 0.998122 24.539 1.01426 24.6148 1.04565C24.6907 1.07704 24.7596 1.12308 24.8177 1.18112C24.8757 1.23917 24.9217 1.30809 24.9531 1.38394C24.9845 1.45979 25.0007 1.54108 25.0006 1.62317V26.6232C25.0007 26.7053 24.9845 26.7866 24.9531 26.8624C24.9217 26.9382 24.8757 27.0072 24.8177 27.0652C24.7596 27.1233 24.6907 27.1693 24.6148 27.2007C24.539 27.2321 24.4577 27.2482 24.3756 27.2482Z" fill="#2F89F8"/>
<path d="M26.2646 27.2518H26.264L24.3749 27.2482C24.2092 27.2481 24.0502 27.1822 23.9331 27.0649C23.8159 26.9476 23.7502 26.7886 23.7502 26.6229C23.7503 26.4571 23.8163 26.2982 23.9335 26.181C24.0508 26.0639 24.2098 25.9981 24.3756 25.9982H24.3762L26.2652 26.0018C26.431 26.0019 26.5899 26.0678 26.7071 26.1851C26.8242 26.3024 26.89 26.4614 26.8899 26.6271C26.8898 26.7929 26.8239 26.9518 26.7066 27.069C26.5894 27.1861 26.4304 27.2519 26.2646 27.2518H26.2646Z" fill="#2F89F8"/>
<path d="M33.1256 27.2519C32.9599 27.2519 32.8008 27.1862 32.6836 27.069C32.5663 26.9519 32.5004 26.7929 32.5003 26.6272C32.5002 26.4614 32.566 26.3024 32.6831 26.1851C32.8003 26.0679 32.9592 26.0019 33.125 26.0019L37.7563 25.9982C37.8991 25.9982 38.04 25.9662 38.1687 25.9047C38.2975 25.8431 38.4108 25.7535 38.5004 25.6424C38.6027 25.5177 38.6764 25.372 38.7161 25.2157C38.7557 25.0594 38.7604 24.8962 38.7298 24.7378L37.7295 19.324C37.6903 19.0906 37.5712 18.8782 37.3926 18.7229C37.214 18.5677 36.987 18.4794 36.7505 18.4731H24.3756C24.2099 18.4731 24.0509 18.4073 23.9337 18.2901C23.8165 18.1729 23.7506 18.0139 23.7506 17.8481C23.7506 17.6824 23.8165 17.5234 23.9337 17.4062C24.0509 17.289 24.2099 17.2231 24.3756 17.2231H36.7505C37.2787 17.2296 37.7881 17.42 38.191 17.7616C38.594 18.1031 38.8652 18.5745 38.9581 19.0945L39.9591 24.5107C40.0233 24.8493 40.0119 25.1979 39.926 25.5316C39.84 25.8653 39.6814 26.1759 39.4616 26.4413C39.2544 26.6929 38.9941 26.8957 38.6994 27.0352C38.4048 27.1746 38.0829 27.2474 37.7569 27.2482L33.1262 27.2518L33.1256 27.2519Z" fill="#2F89F8"/>
<path d="M7.18811 31.0018C6.38463 31.0018 5.59918 30.7636 4.93111 30.3172C4.26303 29.8708 3.74233 29.2363 3.43485 28.494C3.12737 27.7517 3.04692 26.9348 3.20367 26.1468C3.36042 25.3587 3.74734 24.6349 4.31549 24.0667C4.88364 23.4986 5.60751 23.1116 6.39556 22.9549C7.18361 22.7981 8.00044 22.8786 8.74276 23.1861C9.48509 23.4936 10.1196 24.0143 10.566 24.6823C11.0124 25.3504 11.2506 26.1358 11.2506 26.9393C11.2494 28.0164 10.821 29.049 10.0594 29.8106C9.29776 30.5722 8.26517 31.0006 7.18811 31.0018ZM7.18811 24.1268C6.63185 24.1268 6.08808 24.2918 5.62557 24.6008C5.16306 24.9099 4.80257 25.3491 4.5897 25.863C4.37683 26.377 4.32113 26.9425 4.42965 27.488C4.53817 28.0336 4.80604 28.5347 5.19937 28.9281C5.59271 29.3214 6.09385 29.5893 6.63942 29.6978C7.18499 29.8063 7.75049 29.7506 8.26441 29.5377C8.77833 29.3249 9.21758 28.9644 9.52662 28.5019C9.83566 28.0394 10.0006 27.4956 10.0006 26.9393C9.9998 26.1937 9.70322 25.4788 9.17595 24.9515C8.64868 24.4242 7.93378 24.1276 7.18811 24.1268Z" fill="#2F89F8"/>
<path d="M29.6954 31.0018C28.8922 31.0005 28.1075 30.7611 27.4403 30.3139C26.7731 29.8667 26.2534 29.2318 25.947 28.4893C25.6405 27.7469 25.561 26.9303 25.7185 26.1427C25.876 25.3551 26.2635 24.6318 26.8319 24.0643C27.4003 23.4969 28.1242 23.1106 28.9121 22.9544C29.6999 22.7982 30.5164 22.879 31.2583 23.1867C32.0003 23.4944 32.6344 24.0151 33.0805 24.683C33.5266 25.3509 33.7647 26.1361 33.7647 26.9393C33.7625 28.0173 33.3328 29.0503 32.57 29.8119C31.8071 30.5735 30.7734 31.0014 29.6954 31.0018ZM29.6954 24.1268C29.1395 24.1282 28.5964 24.2942 28.1347 24.6041C27.6731 24.9139 27.3137 25.3536 27.1018 25.8677C26.89 26.3817 26.8352 26.947 26.9445 27.4921C27.0538 28.0373 27.3222 28.5378 27.7158 28.9304C28.1094 29.3231 28.6105 29.5903 29.1559 29.6983C29.7013 29.8062 30.2665 29.7502 30.78 29.5371C31.2935 29.324 31.7324 28.9635 32.0411 28.5012C32.3499 28.0388 32.5147 27.4953 32.5147 26.9393C32.5128 26.1928 32.215 25.4775 31.6865 24.9503C31.158 24.423 30.442 24.1269 29.6954 24.1268Z" fill="#2F89F8"/>
<path d="M38.7903 22.2482H35.6256C35.4598 22.2482 35.3009 22.1823 35.1837 22.0651C35.0665 21.9479 35.0006 21.7889 35.0006 21.6232C35.0006 21.4574 35.0665 21.2984 35.1837 21.1812C35.3009 21.064 35.4598 20.9982 35.6256 20.9982H38.7903C38.956 20.9982 39.115 21.064 39.2322 21.1812C39.3494 21.2984 39.4153 21.4574 39.4153 21.6232C39.4153 21.7889 39.3494 21.9479 39.2322 22.0651C39.115 22.1823 38.956 22.2482 38.7903 22.2482H38.7903Z" fill="#2F89F8"/>
<path d="M24.3756 21.6232C24.2935 21.6232 24.2122 21.6071 24.1364 21.5757C24.0605 21.5443 23.9916 21.4983 23.9336 21.4402C23.8755 21.3822 23.8295 21.3133 23.7981 21.2374C23.7667 21.1616 23.7506 21.0803 23.7506 20.9982V9.12317C23.7506 9.04108 23.7667 8.95979 23.7981 8.88394C23.8295 8.80809 23.8755 8.73917 23.9336 8.68112C23.9916 8.62308 24.0605 8.57704 24.1364 8.54565C24.2122 8.51426 24.2935 8.49812 24.3756 8.49817H30.8758C31.2615 8.49141 31.6409 8.59586 31.9687 8.79902C32.2966 9.00218 32.559 9.29546 32.7246 9.6438L36.1981 17.5979C36.2315 17.6732 36.2497 17.7543 36.2517 17.8366C36.2536 17.919 36.2393 18.0008 36.2094 18.0776C36.1796 18.1544 36.1349 18.2245 36.0779 18.2839C36.0209 18.3433 35.9527 18.3909 35.8773 18.4239C35.8018 18.4569 35.7206 18.4746 35.6383 18.4761C35.5559 18.4776 35.4741 18.4628 35.3975 18.4325C35.3209 18.4023 35.2511 18.3572 35.192 18.2998C35.1329 18.2425 35.0857 18.174 35.0531 18.0984L31.5784 10.1425C31.51 10.0175 31.4079 9.91425 31.2837 9.84453C31.1595 9.77481 31.0181 9.74142 30.8759 9.74817H25.0006V20.9982C25.0007 21.0803 24.9845 21.1616 24.9531 21.2374C24.9217 21.3133 24.8757 21.3822 24.8177 21.4402C24.7596 21.4983 24.6907 21.5443 24.6148 21.5757C24.539 21.6071 24.4577 21.6232 24.3756 21.6232Z" fill="#2F89F8"/>
<path d="M19.9994 21.6244H4.99939C4.9173 21.6244 4.83601 21.6083 4.76016 21.5769C4.68431 21.5455 4.61539 21.4995 4.55734 21.4414C4.4993 21.3834 4.45326 21.3145 4.42187 21.2386C4.39048 21.1628 4.37434 21.0815 4.37439 20.9994V5.99939C4.37434 5.9173 4.39048 5.83601 4.42187 5.76016C4.45326 5.68431 4.4993 5.61539 4.55734 5.55734C4.61539 5.4993 4.68431 5.45326 4.76016 5.42187C4.83601 5.39048 4.9173 5.37434 4.99939 5.37439H19.9994C20.0815 5.37434 20.1628 5.39048 20.2386 5.42187C20.3145 5.45326 20.3834 5.4993 20.4414 5.55734C20.4995 5.61539 20.5455 5.68431 20.5769 5.76016C20.6083 5.83601 20.6244 5.9173 20.6244 5.99939V20.9994C20.6244 21.0815 20.6083 21.1628 20.5769 21.2386C20.5455 21.3145 20.4995 21.3834 20.4414 21.4414C20.3834 21.4995 20.3145 21.5455 20.2386 21.5769C20.1628 21.6083 20.0815 21.6244 19.9994 21.6244ZM5.62439 20.3744H19.3744V6.62439H5.62439V20.3744Z" fill="#2F89F8"/>
<path d="M7.18811 28.4994C6.87908 28.4994 6.57698 28.4078 6.32003 28.2361C6.06308 28.0644 5.86281 27.8203 5.74455 27.5348C5.62629 27.2493 5.59534 26.9352 5.65563 26.6321C5.71592 26.329 5.86474 26.0506 6.08326 25.832C6.30178 25.6135 6.58019 25.4647 6.88328 25.4044C7.18638 25.3441 7.50054 25.3751 7.78605 25.4933C8.07156 25.6116 8.31559 25.8119 8.48728 26.0688C8.65897 26.3258 8.75061 26.6279 8.75061 26.9369C8.75023 27.3512 8.58549 27.7484 8.29254 28.0413C7.9996 28.3343 7.60239 28.499 7.18811 28.4994ZM7.18811 26.6244C7.1263 26.6244 7.06589 26.6427 7.0145 26.6771C6.9631 26.7114 6.92305 26.7602 6.8994 26.8173C6.87575 26.8744 6.86956 26.9372 6.88162 26.9979C6.89367 27.0585 6.92344 27.1142 6.96714 27.1579C7.01084 27.2016 7.06653 27.2313 7.12715 27.2434C7.18776 27.2554 7.2506 27.2493 7.3077 27.2256C7.3648 27.202 7.41361 27.1619 7.44794 27.1105C7.48228 27.0591 7.50061 26.9987 7.50061 26.9369C7.50045 26.8541 7.46747 26.7747 7.4089 26.7161C7.35033 26.6575 7.27094 26.6246 7.18811 26.6244Z" fill="#2F89F8"/>
<path d="M29.6881 28.4994C29.3791 28.4994 29.077 28.4078 28.82 28.2361C28.5631 28.0644 28.3628 27.8203 28.2445 27.5348C28.1263 27.2493 28.0953 26.9352 28.1556 26.6321C28.2159 26.329 28.3647 26.0506 28.5833 25.832C28.8018 25.6135 29.0802 25.4647 29.3833 25.4044C29.6864 25.3441 30.0005 25.3751 30.2861 25.4933C30.5716 25.6116 30.8156 25.8119 30.9873 26.0688C31.159 26.3258 31.2506 26.6279 31.2506 26.9369C31.2502 27.3512 31.0855 27.7484 30.7925 28.0413C30.4996 28.3343 30.1024 28.499 29.6881 28.4994ZM29.6881 26.6244C29.6263 26.6244 29.5659 26.6427 29.5145 26.6771C29.4631 26.7114 29.423 26.7602 29.3994 26.8173C29.3757 26.8744 29.3696 26.9372 29.3816 26.9979C29.3937 27.0585 29.4234 27.1142 29.4671 27.1579C29.5108 27.2016 29.5665 27.2313 29.6271 27.2434C29.6878 27.2554 29.7506 27.2493 29.8077 27.2256C29.8648 27.202 29.9136 27.1619 29.9479 27.1105C29.9823 27.0591 30.0006 26.9987 30.0006 26.9369C30.0004 26.8541 29.9675 26.7747 29.9089 26.7161C29.8503 26.6575 29.7709 26.6246 29.6881 26.6244Z" fill="#2F89F8"/>
</svg>
