<svg width="14" height="14" viewBox="0 0 14 14" fill="none" xmlns="http://www.w3.org/2000/svg">
<path d="M10.6483 2.05941C9.64991 1.01984 8.32199 0.447266 6.90885 0.447266C5.49572 0.447266 4.168 1.01974 3.16975 2.05931L3.16801 2.06127C2.17304 3.09807 1.62524 4.47563 1.62524 5.94017C1.62524 7.40481 2.17325 8.78237 3.16801 9.81928L6.67211 13.4713C6.79763 13.6021 7.00528 13.6063 7.13614 13.481C7.13932 13.4777 7.14271 13.4746 7.1457 13.4713L10.6499 9.81928C11.6447 8.78237 12.1927 7.40481 12.1927 5.94017C12.1927 4.47563 11.6446 3.09807 10.6499 2.06127L10.6483 2.05941ZM10.1763 9.36492L6.90885 12.7702L3.64148 9.36492C1.83022 7.47697 1.8294 4.40553 3.64004 2.51686L3.64179 2.51511C4.51525 1.60485 5.67561 1.10352 6.90885 1.10352C8.1423 1.10352 9.30256 1.60485 10.176 2.51521L10.1776 2.51686C11.9883 4.40542 11.9878 7.47697 10.1763 9.36492Z" fill="#2F89F8"/>
<path d="M6.90881 2.44995C5.27795 2.44995 3.95569 3.77222 3.95569 5.40318C3.95569 7.03414 5.27795 8.3563 6.90881 8.3563C8.53987 8.3563 9.86193 7.03414 9.86193 5.40318C9.86019 3.77304 8.53905 2.4519 6.90881 2.44995ZM6.90881 7.70005C5.64031 7.70005 4.61194 6.67168 4.61194 5.40318C4.61194 4.13467 5.64031 3.1062 6.90881 3.1062C8.17742 3.1062 9.20568 4.13467 9.20568 5.40318C9.20568 6.67168 8.17742 7.70005 6.90881 7.70005Z" fill="#2F89F8"/>
</svg>
