<svg width="14" height="15" viewBox="0 0 14 15" fill="none" xmlns="http://www.w3.org/2000/svg">
<path d="M0.0127951 2.67923C-0.0427979 3.35695 0.081242 4.05765 0.4148 4.95051C0.946951 6.38838 1.7516 7.7292 2.94766 9.1706C4.36817 10.8789 6.13703 12.2642 8.13613 13.2337C8.87185 13.5856 9.85389 13.9984 10.9243 14.0668C10.9844 14.071 11.0458 14.071 11.0997 14.071C11.701 14.071 12.1854 13.8653 12.5805 13.4427C12.5832 13.4399 12.5858 13.437 12.5884 13.4339C12.7939 13.1976 13.0116 12.9723 13.2406 12.7588L13.318 12.6834C13.4398 12.565 13.5547 12.4533 13.6696 12.3296C14.1132 11.8675 14.1098 11.3472 13.6614 10.903L11.7526 8.99418C11.6377 8.86934 11.4002 8.66512 11.0758 8.66512C10.8369 8.66512 10.596 8.77984 10.379 8.99675L9.19561 10.18C9.15014 10.2256 9.02931 10.3464 8.84437 10.3464C8.76468 10.3451 8.68659 10.3252 8.61606 10.2879L8.61204 10.2854C8.60256 10.2794 8.59308 10.2738 8.58344 10.2685C8.47531 10.202 8.35528 10.1419 8.22723 10.0779C8.08921 10.0117 7.95489 9.93862 7.82426 9.85877C6.7373 9.1714 5.75205 8.27436 4.81227 7.11687C4.80954 7.1135 4.80681 7.11029 4.80408 7.10707C4.2949 6.45972 3.9636 5.91986 3.73142 5.35959L3.725 5.34047C3.6633 5.14461 3.66137 4.98682 3.84405 4.80414C3.84679 4.80141 3.84952 4.79851 3.85225 4.79562L3.8545 4.79337C4.15062 4.52794 4.41846 4.26138 4.72921 3.94325C4.79733 3.87737 4.86417 3.80973 4.92892 3.74417C4.96138 3.7114 4.99416 3.6783 5.02709 3.6452C5.26087 3.41158 5.37447 3.17909 5.37447 2.93454C5.37447 2.69 5.26087 2.4575 5.02709 2.22388L4.08539 1.28234C4.02995 1.22514 3.97484 1.1689 3.91973 1.11315C3.86462 1.05755 3.81031 1.00212 3.75681 0.946849C3.52737 0.709856 3.33247 0.512709 3.12842 0.321829L3.12102 0.314438C2.91536 0.108776 2.6803 0 2.44154 0C2.2047 0 1.96434 0.108133 1.74678 0.312671L1.74116 0.318134L0.561656 1.49748C0.239666 1.81063 0.0442871 2.23127 0.0127951 2.67923ZM11.0755 9.15887C11.219 9.15887 11.3441 9.27906 11.3914 9.33079C11.3938 9.33352 11.3965 9.33642 11.3991 9.33899L13.3129 11.2528C13.5703 11.5079 13.5735 11.712 13.3223 11.9784C13.3122 11.9875 13.3027 11.9975 13.2942 12.0083C13.274 12.0299 13.2528 12.0508 13.232 12.072L10.6169 9.45676L10.7276 9.34574C10.7977 9.27616 10.9357 9.15887 11.0755 9.15887ZM2.44154 0.493589C2.57425 0.493589 2.6946 0.585976 2.77204 0.663421L2.78232 0.673865C2.78441 0.675793 2.7865 0.677882 2.78843 0.679649C2.98606 0.864424 3.17678 1.05739 3.4022 1.29021C3.45683 1.34644 3.51194 1.40284 3.56802 1.4594C3.622 1.51435 3.67647 1.56962 3.73367 1.62859L4.67795 2.57287C4.81259 2.70735 4.88072 2.82914 4.88072 2.93454C4.88072 3.0401 4.81259 3.16173 4.67795 3.29622C4.64421 3.32996 4.61079 3.36354 4.57769 3.39728L4.56757 3.40756L1.95855 0.798547L2.08725 0.669848C2.21097 0.554484 2.3334 0.493589 2.44154 0.493589ZM1.60957 1.14769L4.21955 3.75767C3.97886 4.00141 3.7589 4.21639 3.52207 4.42864C3.52142 4.42913 3.52078 4.42977 3.52014 4.43025C3.50616 4.44182 3.49314 4.45467 3.48158 4.46881C3.06688 4.89572 3.20763 5.34159 3.25535 5.49295L3.26579 5.52412C3.26756 5.52958 3.26965 5.53488 3.27174 5.54018C3.52335 6.14962 3.87844 6.72981 4.42344 7.42167C4.42762 7.42665 4.4318 7.43147 4.43582 7.43613C5.40789 8.63202 6.43009 9.56104 7.56043 10.2759C7.7052 10.3649 7.85447 10.4463 8.00759 10.5199C8.12697 10.5797 8.23976 10.6359 8.33038 10.6922C8.33552 10.6954 8.34066 10.6984 8.34613 10.7012L8.35063 10.7041C8.36412 10.7123 8.37778 10.7205 8.39176 10.7275C8.53154 10.8005 8.68675 10.839 8.84437 10.8402C9.10274 10.8402 9.33829 10.7356 9.54475 10.5293L10.2678 9.80607L12.8813 12.4194C12.6478 12.6379 12.4259 12.8682 12.2164 13.1097C11.912 13.4329 11.5676 13.5772 11.0999 13.5772C11.0512 13.5772 11.0009 13.5772 10.9566 13.5743C9.96989 13.5112 9.04473 13.1212 8.35014 12.789C6.41483 11.85 4.70221 10.5087 3.32685 8.85472C2.16823 7.4583 1.39009 6.16328 0.87754 4.77859C0.570493 3.95642 0.455611 3.32144 0.504777 2.72052C0.526629 2.38873 0.671396 2.07719 0.910799 1.84662L1.60957 1.14769Z" fill="#2F89F8"/>
</svg>
