<svg width="20" height="20" viewBox="0 0 20 20" fill="none" xmlns="http://www.w3.org/2000/svg">
<path d="M15.2118 2.94223C13.7856 1.45712 11.8886 0.63916 9.86979 0.63916C7.85103 0.63916 5.95429 1.45698 4.52822 2.94208L4.52572 2.94487C3.10435 4.42602 2.32178 6.39397 2.32178 8.48616C2.32178 10.5785 3.10464 12.5465 4.52572 14.0277L9.53159 19.2449C9.7109 19.4317 10.0075 19.4378 10.1945 19.2587C10.199 19.254 10.2039 19.2496 10.2081 19.2449L15.2142 14.0277C16.6352 12.5465 17.4181 10.5785 17.4181 8.48616C17.4181 6.39397 16.6351 4.42602 15.2142 2.94487L15.2118 2.94223ZM14.5376 13.3787L9.86979 18.2434L5.20212 13.3787C2.6146 10.6816 2.61342 6.29382 5.20006 3.59572L5.20256 3.59322C6.45036 2.29285 8.10802 1.57666 9.86979 1.57666C11.6319 1.57666 13.2894 2.29285 14.5372 3.59337L14.5394 3.59572C17.1262 6.29367 17.1254 10.6816 14.5376 13.3787Z" fill="#2F89F8"/>
<path d="M9.86975 3.5C7.53995 3.5 5.651 5.38895 5.651 7.71889C5.651 10.0488 7.53995 11.9376 9.86975 11.9376C12.1998 11.9376 14.0885 10.0488 14.0885 7.71889C14.086 5.39012 12.1987 3.50279 9.86975 3.5ZM9.86975 11.0001C8.0576 11.0001 6.5885 9.53104 6.5885 7.71889C6.5885 5.90675 8.0576 4.4375 9.86975 4.4375C11.682 4.4375 13.151 5.90675 13.151 7.71889C13.151 9.53104 11.682 11.0001 9.86975 11.0001Z" fill="#2F89F8"/>
</svg>
