<svg width="15" height="15" viewBox="0 0 15 15" fill="none" xmlns="http://www.w3.org/2000/svg">
<path d="M7.40163 7.4722C9.34006 7.4722 10.9113 5.90088 10.9113 3.96254C10.9113 2.0243 9.34006 0.452881 7.40163 0.452881C5.46338 0.452881 3.89197 2.0243 3.89197 3.96254C3.89346 5.90023 5.46394 7.47071 7.40163 7.4722ZM7.40163 1.04772C9.0115 1.04772 10.3164 2.35267 10.3164 3.96254C10.3164 5.57241 9.0115 6.87736 7.40163 6.87736C5.79195 6.87736 4.48681 5.57241 4.48681 3.96254C4.48951 2.35388 5.79297 1.05033 7.40163 1.04772Z" fill="#2F89F8"/>
<path d="M7.40164 8.34961C5.87594 8.34961 4.45712 8.94147 3.4043 10.0182C2.33649 11.1098 1.75049 12.5998 1.75049 14.218C1.75095 14.382 1.88391 14.5149 2.04796 14.5153H12.7554C12.9196 14.5149 13.0523 14.382 13.0528 14.218C13.0528 12.6029 12.4669 11.1098 11.3992 10.0212C10.3463 8.94445 8.92753 8.34961 7.40164 8.34961ZM2.35138 13.9205C2.41684 12.5762 2.93729 11.3478 3.82662 10.4376C4.76651 9.47682 6.03655 8.94753 7.39876 8.94753C8.76096 8.94753 10.031 9.47682 10.9708 10.4376C11.8631 11.3478 12.3807 12.5762 12.4461 13.9205H2.35138Z" fill="#2F89F8"/>
</svg>
