<svg width="30" height="30" viewBox="0 0 30 30" fill="none" xmlns="http://www.w3.org/2000/svg">
<path d="M15.0051 6.30591C14.2293 6.30679 13.4856 6.61535 12.9371 7.16389C12.3885 7.71243 12.08 8.45616 12.0791 9.2319V10.5191C12.0774 10.9044 12.1518 11.2863 12.2981 11.6428C12.4444 11.9993 12.6596 12.3235 12.9315 12.5965C13.2034 12.8696 13.5265 13.0863 13.8823 13.2342C14.2382 13.3821 14.6197 13.4582 15.0051 13.4582C15.3904 13.4582 15.772 13.3821 16.1279 13.2342C16.4837 13.0863 16.8068 12.8696 17.0787 12.5965C17.3506 12.3235 17.5658 11.9993 17.7121 11.6428C17.8584 11.2863 17.9328 10.9044 17.9311 10.5191V9.2319C17.9302 8.45615 17.6216 7.71241 17.0731 7.16387C16.5246 6.61533 15.7808 6.30678 15.0051 6.30591ZM17.2279 10.5188C17.2273 11.1081 16.9929 11.6731 16.5762 12.0898C16.1594 12.5066 15.5945 12.741 15.0051 12.7417C14.4158 12.741 13.8508 12.5066 13.4341 12.0898C13.0174 11.6731 12.783 11.1081 12.7823 10.5188V9.2319C12.7808 8.93904 12.8372 8.64876 12.9482 8.37775C13.0593 8.10674 13.2228 7.86035 13.4293 7.65272C13.6359 7.4451 13.8814 7.28034 14.1519 7.16792C14.4223 7.0555 14.7123 6.99762 15.0052 6.99762C15.298 6.99762 15.588 7.0555 15.8584 7.16792C16.1289 7.28034 16.3744 7.4451 16.581 7.65272C16.7876 7.86035 16.951 8.10674 17.0621 8.37775C17.1731 8.64876 17.2295 8.93904 17.228 9.2319L17.2279 10.5188Z" fill="#2F89F8"/>
<path d="M22.5352 14.2878C23.2258 14.287 23.888 14.0123 24.3763 13.5239C24.8647 13.0356 25.1394 12.3734 25.1402 11.6828V10.556C25.1369 9.8673 24.861 9.20787 24.3728 8.72201C23.8846 8.23614 23.2239 7.96338 22.5352 7.96338C21.8464 7.96338 21.1857 8.23614 20.6975 8.72201C20.2093 9.20787 19.9334 9.8673 19.9302 10.556V11.6828C19.931 12.3734 20.2057 13.0356 20.694 13.5239C21.1824 14.0123 21.8446 14.287 22.5352 14.2878ZM20.6333 10.556C20.6361 10.0535 20.8377 9.57242 21.1941 9.21803C21.5504 8.86364 22.0326 8.66471 22.5352 8.66471C23.0378 8.66471 23.5199 8.86364 23.8763 9.21803C24.2326 9.57242 24.4342 10.0535 24.437 10.556V11.6828C24.4364 12.187 24.2358 12.6704 23.8793 13.0269C23.5228 13.3834 23.0394 13.584 22.5352 13.5846C22.031 13.584 21.5476 13.3834 21.1911 13.0269C20.8345 12.6704 20.634 12.187 20.6333 11.6828V10.556Z" fill="#2F89F8"/>
<path d="M7.46482 7.95117C6.77419 7.95196 6.11207 8.22667 5.62371 8.71502C5.13536 9.20337 4.86065 9.8655 4.85986 10.5561V11.6829C4.86313 12.3716 5.13902 13.0311 5.6272 13.5169C6.11538 14.0028 6.7761 14.2756 7.46485 14.2756C8.15361 14.2756 8.81433 14.0028 9.30251 13.5169C9.79068 13.0311 10.0666 12.3716 10.0698 11.6829V10.5561C10.0691 9.86549 9.79434 9.20336 9.30597 8.715C8.81761 8.22664 8.15547 7.95195 7.46482 7.95117ZM9.36672 11.6829C9.36393 12.1855 9.16232 12.6665 8.80596 13.0209C8.44959 13.3753 7.96744 13.5742 7.46485 13.5742C6.96227 13.5742 6.48011 13.3753 6.12375 13.0209C5.76738 12.6665 5.56578 12.1855 5.56299 11.6829V10.5561C5.56578 10.0536 5.76738 9.57251 6.12375 9.21812C6.48011 8.86373 6.96227 8.66479 7.46485 8.66479C7.96744 8.66479 8.44959 8.86373 8.80596 9.21812C9.16232 9.57251 9.36393 10.0536 9.36672 10.5561V11.6829Z" fill="#2F89F8"/>
<path d="M3.28125 20.2031H9.87422V21.1387C9.87422 21.232 9.91126 21.3214 9.97719 21.3873C10.0431 21.4532 10.1325 21.4903 10.2258 21.4903H19.7845C19.8778 21.4903 19.9672 21.4532 20.0331 21.3873C20.0991 21.3214 20.1361 21.232 20.1361 21.1387V20.2031H26.7188C26.812 20.2031 26.9014 20.166 26.9673 20.1001C27.0333 20.0342 27.0703 19.9448 27.0703 19.8515V17.3163C27.0697 16.5818 26.7894 15.8751 26.2864 15.3399C25.7835 14.8046 25.0955 14.481 24.3625 14.4348C24.1771 14.4223 24.0808 14.5397 23.9958 14.6432C23.8193 14.859 23.5958 15.0316 23.3424 15.1479C23.089 15.2642 22.8124 15.3211 22.5337 15.3143C22.255 15.3075 21.9815 15.2372 21.7341 15.1086C21.4867 14.9801 21.2719 14.7968 21.1061 14.5726C21.0724 14.5273 21.0283 14.4908 20.9776 14.466C20.9269 14.4412 20.8709 14.4289 20.8145 14.4301C20.3026 14.4414 19.8031 14.5901 19.3683 14.8606C19.0856 14.5246 18.7375 14.2496 18.3452 14.0523C17.953 13.855 17.5247 13.7395 17.0864 13.7128C16.9022 13.7026 16.8099 13.8143 16.7125 13.9331C16.5059 14.1855 16.2445 14.3874 15.948 14.5235C15.6516 14.6595 15.328 14.7261 15.002 14.7181C14.6759 14.7101 14.356 14.6278 14.0666 14.4774C13.7772 14.3271 13.5259 14.1126 13.332 13.8504C13.2983 13.8051 13.2542 13.7685 13.2035 13.7437C13.1528 13.7189 13.0969 13.7066 13.0404 13.7079C12.194 13.7274 11.389 14.0785 10.7988 14.6856C10.7423 14.7434 10.6891 14.8035 10.6375 14.8647C10.2318 14.6115 9.76925 14.4637 9.29191 14.4348C9.10641 14.4219 9.01014 14.5397 8.92518 14.6432C8.74861 14.859 8.5251 15.0317 8.27169 15.148C8.01828 15.2643 7.74166 15.3213 7.46291 15.3144C7.18416 15.3076 6.91064 15.2373 6.66321 15.1087C6.41578 14.9802 6.20097 14.7968 6.03516 14.5726C6.00143 14.5274 5.95738 14.4908 5.90668 14.466C5.85598 14.4412 5.80008 14.4289 5.74365 14.4301C4.99088 14.4493 4.2754 14.7618 3.74973 15.301C3.22407 15.8402 2.92981 16.5633 2.92969 17.3163V19.8515C2.92969 19.9448 2.96673 20.0342 3.03266 20.1001C3.09859 20.166 3.18801 20.2031 3.28125 20.2031ZM20.6629 15.1434C20.9002 15.4171 21.1934 15.6367 21.5227 15.7875C21.852 15.9383 22.2098 16.0168 22.572 16.0177C22.9342 16.0186 23.2924 15.9419 23.6224 15.7927C23.9525 15.6435 24.2467 15.4253 24.4853 15.1528C25.007 15.2263 25.4846 15.4856 25.8304 15.8831C26.1761 16.2806 26.3667 16.7895 26.3672 17.3163V19.5H20.1361V16.9552C20.1365 16.4287 20.0081 15.9101 19.7623 15.4445C20.0363 15.2784 20.344 15.1756 20.6629 15.1436V15.1434ZM12.8872 14.4207C13.1536 14.7337 13.4847 14.9853 13.8577 15.1581C14.2307 15.3309 14.6367 15.4209 15.0478 15.4218C15.4588 15.4228 15.8652 15.3346 16.239 15.1635C16.6127 14.9924 16.945 14.7423 17.2129 14.4305C17.8263 14.5102 18.3898 14.8103 18.7983 15.2748C19.2068 15.7393 19.4324 16.3366 19.433 16.9552V20.7872H10.5773V16.9552C10.5775 16.3209 10.8144 15.7096 11.2416 15.2408C11.6689 14.772 12.2557 14.4796 12.8872 14.4207ZM3.63281 17.3163C3.63617 16.7769 3.83767 16.2575 4.19899 15.857C4.56031 15.4564 5.05625 15.2026 5.59248 15.1439C5.82977 15.4175 6.12293 15.6371 6.45223 15.7879C6.78152 15.9386 7.13931 16.0171 7.50148 16.018C7.86366 16.0189 8.22181 15.9421 8.55183 15.7929C8.88185 15.6437 9.17607 15.4255 9.41467 15.1531C9.70819 15.194 9.99021 15.2947 10.2434 15.4488C9.99996 15.9135 9.87327 16.4305 9.87422 16.9552V19.5H3.63281V17.3163Z" fill="#2F89F8"/>
</svg>
