<svg width="20" height="20" viewBox="0 0 20 20" fill="none" xmlns="http://www.w3.org/2000/svg">
<g clip-path="url(#clip0_751_8867)">
<path d="M19.8668 8.3398C19.6893 8.16231 19.4013 8.16231 19.2239 8.3398L18.1503 9.41343C17.8897 5.88584 15.3896 2.92603 11.9553 2.07918C8.5211 1.23217 4.93157 2.69043 3.06071 5.69236C2.97296 5.83006 2.9658 6.00439 3.04206 6.14892C3.11832 6.29345 3.26618 6.38602 3.42952 6.39119C3.59286 6.39651 3.74655 6.31359 3.8318 6.17423C5.48237 3.52629 8.63899 2.22704 11.6752 2.94601C14.7116 3.66498 16.9505 6.2415 17.2385 9.3485L16.2293 8.3398C16.051 8.16764 15.7674 8.16997 15.5919 8.34546C15.4166 8.5208 15.4141 8.80436 15.5864 8.98285L17.4052 10.8014C17.5827 10.9791 17.8706 10.9791 18.0481 10.8014L19.8668 8.98285C20.0445 8.80535 20.0445 8.5173 19.8668 8.3398Z" fill="#04BA42"/>
<path d="M16.79 13.7321C16.577 13.5994 16.2966 13.664 16.1631 13.8765C14.5125 16.5248 11.3559 17.824 8.3193 17.105C5.28289 16.3861 3.04406 13.8094 2.75617 10.7022L3.76503 11.7111C3.94335 11.8832 4.22691 11.8809 4.40241 11.7054C4.57774 11.5301 4.58024 11.2465 4.40791 11.068L2.58916 9.24946C2.41167 9.0718 2.12378 9.0718 1.94628 9.24946L0.127706 11.068C-0.0446279 11.2465 -0.0422968 11.5301 0.1332 11.7054C0.308531 11.8809 0.592091 11.8832 0.770585 11.7111L1.84405 10.6375C2.1048 14.165 4.60472 17.1249 8.03907 17.9717C11.4734 18.8187 15.0628 17.3606 16.9336 14.3585C17.0665 14.1459 17.0022 13.8657 16.79 13.7321Z" fill="#04BA42"/>
</g>
<defs>
<clipPath id="clip0_751_8867">
<rect width="20" height="20" fill="white"/>
</clipPath>
</defs>
</svg>
