<svg width="12" height="12" viewBox="0 0 12 12" fill="none" xmlns="http://www.w3.org/2000/svg">
<g clip-path="url(#clip0_10_392)">
<path d="M9.23882 8.85225C10.0711 7.92295 10.5313 6.71916 10.531 5.47165C10.531 2.67086 8.25237 0.392092 5.45149 0.392092C2.64781 0.389298 0.369141 2.66797 0.369141 5.46876C0.369141 8.26955 2.64781 10.5483 5.4487 10.5483C6.69657 10.5504 7.9009 10.09 8.82921 9.25601L11.1252 11.5521C11.1794 11.6065 11.2533 11.6367 11.33 11.6357C11.4065 11.6354 11.48 11.6054 11.5349 11.5521C11.5888 11.4981 11.6192 11.425 11.6192 11.3487C11.6192 11.2725 11.5888 11.1992 11.5349 11.1453L9.23882 8.85225ZM0.946066 5.46876C0.946066 2.98528 2.96512 0.966223 5.4487 0.966223C7.93209 0.966223 9.95124 2.98528 9.95124 5.46876C9.95124 7.95225 7.93209 9.97139 5.4487 9.97139C2.96512 9.97419 0.946066 7.95225 0.946066 5.46876Z" fill="#656381"/>
</g>
<defs>
<clipPath id="clip0_10_392">
<rect width="12" height="12" fill="white"/>
</clipPath>
</defs>
</svg>
