<svg width="20" height="20" viewBox="0 0 20 20" fill="none" xmlns="http://www.w3.org/2000/svg">
<g clip-path="url(#clip0_69_3419)">
<path d="M19.5465 3.68724H11.599C11.4081 2.80418 10.5967 2.11206 9.66587 2.11206C8.71122 2.11206 7.92363 2.78032 7.7327 3.68724H0.429594C0.190931 3.68724 0 3.87817 0 4.11683C0 4.3555 0.190931 4.54643 0.429594 4.54643H7.70883C7.89976 5.42948 8.71122 6.12161 9.642 6.12161C10.5967 6.12161 11.3842 5.45335 11.5752 4.54643H19.5465C19.7852 4.54643 19.9761 4.3555 19.9761 4.11683C19.9761 3.87817 19.7852 3.68724 19.5465 3.68724ZM9.66587 5.28628C9.04535 5.28628 8.52029 4.78509 8.52029 4.1407C8.52029 3.49631 9.02148 2.99512 9.66587 2.99512C10.2864 2.99512 10.8115 3.49631 10.8115 4.1407C10.8115 4.76123 10.3103 5.28628 9.66587 5.28628Z" fill="#2F89F8"/>
<path d="M19.5704 9.58226H7.5179C7.32697 8.6992 6.51551 8.00708 5.58473 8.00708C4.63007 8.00708 3.84248 8.67534 3.65155 9.58226H0.429594C0.190931 9.58226 0 9.77319 0 10.0119C0 10.2505 0.190931 10.4414 0.429594 10.4414H3.65155C3.84248 11.3245 4.65394 12.0166 5.58473 12.0166C6.53938 12.0166 7.32697 11.3484 7.5179 10.4414H19.5704C19.8091 10.4414 20 10.2505 20 10.0119C20 9.77319 19.8091 9.58226 19.5704 9.58226ZM5.58473 11.1574C4.9642 11.1574 4.43914 10.6562 4.43914 10.0119C4.43914 9.39133 4.9642 8.86627 5.58473 8.86627C6.20525 8.86627 6.73031 9.36746 6.73031 10.0119C6.73031 10.6324 6.22912 11.1574 5.58473 11.1574Z" fill="#2F89F8"/>
<path d="M19.5465 15.4534H15.7995C15.6086 14.5703 14.7971 13.8782 13.8663 13.8782C12.9117 13.8782 12.1241 14.5464 11.9332 15.4534H0.429594C0.190931 15.4534 0 15.6443 0 15.8829C0 16.1216 0.190931 16.3125 0.429594 16.3125H11.9093C12.1002 17.1956 12.9117 17.8877 13.8425 17.8877C14.7971 17.8877 15.5847 17.2195 15.7757 16.3125H19.5465C19.7852 16.3125 19.9761 16.1216 19.9761 15.8829C19.9761 15.6443 19.7852 15.4534 19.5465 15.4534ZM13.8425 17.0524C13.222 17.0524 12.6969 16.5512 12.6969 15.9068C12.6969 15.2624 13.222 14.7612 13.8425 14.7612C14.463 14.7612 14.9881 15.2624 14.9881 15.9068C14.9881 16.5512 14.4869 17.0524 13.8425 17.0524Z" fill="#2F89F8"/>
</g>
<defs>
<clipPath id="clip0_69_3419">
<rect width="20" height="20" fill="white"/>
</clipPath>
</defs>
</svg>
