<svg width="18" height="18" viewBox="0 0 18 18" fill="none" xmlns="http://www.w3.org/2000/svg">
<path d="M7.2166 13.5693C6.27403 13.5693 5.51001 14.3334 5.51001 15.2757C5.50988 16.2181 6.27391 16.9821 7.21635 16.9821C8.15891 16.9824 8.92293 16.2184 8.92293 15.2758C8.9218 14.3339 8.15853 13.5705 7.2166 13.5693ZM7.2166 16.1786C6.71788 16.1786 6.31358 15.7745 6.31358 15.2758C6.31346 14.7772 6.71775 14.3729 7.21635 14.3729C7.71506 14.3729 8.11936 14.7771 8.11936 15.2757C8.11873 15.774 7.71481 16.1778 7.2166 16.1784V16.1786Z" fill="#04BA42"/>
<path d="M13.0889 13.5693C12.1463 13.5693 11.3823 14.3334 11.3823 15.2758C11.3823 16.2184 12.1463 16.9821 13.0889 16.9821C14.0314 16.9821 14.7952 16.2184 14.7952 15.2758C14.7942 14.3339 14.0308 13.5705 13.0889 13.5693ZM13.0889 16.1786C12.5902 16.1786 12.1859 15.7745 12.1859 15.2758C12.1859 14.7771 12.5902 14.3729 13.0889 14.3729C13.5875 14.3729 13.9917 14.7771 13.9917 15.2758C13.9917 15.7743 13.5875 16.1786 13.0889 16.1786Z" fill="#04BA42"/>
<path d="M17.3468 3.6149C17.271 3.51006 17.1491 3.44854 17.0196 3.44992H4.61146L4.47008 2.55004C4.33347 1.65795 3.56619 0.999023 2.6638 0.999023H0.948173C0.726186 0.999023 0.546387 1.17895 0.546387 1.40081C0.546387 1.6228 0.726186 1.8026 0.948173 1.8026H2.6638C3.16955 1.8026 3.59959 2.17174 3.67618 2.67184L5.03472 11.2595C5.1712 12.1519 5.93848 12.811 6.84125 12.8115H15.2357C15.4576 12.8115 15.6375 12.6317 15.6375 12.4098C15.6375 12.1879 15.4576 12.008 15.2357 12.008H6.84125C6.33361 12.0043 5.90408 11.632 5.82849 11.1302L5.61957 9.79814H14.0759C14.8542 9.80015 15.5481 9.30847 15.8042 8.5737L17.3993 3.97475C17.4417 3.85346 17.4223 3.71912 17.3468 3.6149ZM16.4552 4.25349L16.0389 5.45885H4.929L4.73865 4.25349H16.4552ZM5.05606 6.26242H15.7603L15.5195 6.94546H5.16617L5.05606 6.26242ZM14.0759 8.99457H5.49237L5.29337 7.74903H15.2411L15.0448 8.31003C14.9011 8.72161 14.5118 8.99658 14.0759 8.99457Z" fill="#04BA42"/>
</svg>
