<svg width="20" height="20" viewBox="0 0 20 20" fill="none" xmlns="http://www.w3.org/2000/svg">
<g clip-path="url(#clip0_69_159)">
<path d="M9.99996 15.625C10.7732 15.6245 11.538 15.4641 12.2463 15.1538C12.9546 14.8435 13.591 14.39 14.1156 13.8219L14.1531 13.7938C15.0234 12.841 15.5397 11.6179 15.6153 10.3297C15.691 9.0414 15.3213 7.76633 14.5685 6.71825C13.8156 5.67018 12.7252 4.91284 11.4802 4.57326C10.2352 4.23367 8.91136 4.33248 7.73058 4.85313C6.5498 5.37377 5.58395 6.28458 4.995 7.43281C4.40604 8.58104 4.2298 9.89686 4.49583 11.1596C4.76186 12.4224 5.45399 13.5552 6.45613 14.3682C7.45828 15.1813 8.7095 15.625 9.99996 15.625ZM5.02809 10.5219L7.89371 13.6469L8.35621 13.2219L5.37809 9.97813L5.88434 10.0875C7.48121 10.4344 8.90621 11.7813 9.26871 13.2844L9.68746 15C8.50652 14.9256 7.39022 14.4348 6.53708 13.6148C5.68395 12.7949 5.14925 11.6989 5.02809 10.5219ZM10.3125 15L10.7218 13.3C11.0843 11.7969 12.5093 10.45 14.1062 10.1031L14.6125 9.99375L11.6437 13.225L12.1062 13.65L14.9718 10.525C14.85 11.7015 14.315 12.7967 13.4619 13.616C12.6088 14.4354 11.4929 14.9257 10.3125 15ZM9.99996 5C11.1988 5.00146 12.3573 5.43364 13.2642 6.21777C14.1711 7.0019 14.766 8.08578 14.9406 9.27188L13.9843 9.475C12.1625 9.87188 10.5468 11.4125 10.125 13.1406L9.99996 13.6563L9.87496 13.1406C9.45934 11.4125 7.83746 9.87188 6.01559 9.475L5.05934 9.27188C5.23392 8.08578 5.82887 7.0019 6.73576 6.21777C7.64265 5.43364 8.80109 5.00146 9.99996 5Z" fill="#2F89F8"/>
<path d="M1.25 8.125C1.16712 8.125 1.08763 8.15792 1.02903 8.21653C0.970424 8.27513 0.9375 8.35462 0.9375 8.4375V11.5625C0.9375 11.6454 0.970424 11.7249 1.02903 11.7835C1.08763 11.8421 1.16712 11.875 1.25 11.875H2.41562C2.60271 12.6373 2.90516 13.3665 3.3125 14.0375L2.5 14.8625C2.46976 14.8917 2.4457 14.9266 2.42927 14.9653C2.41284 15.0039 2.40437 15.0455 2.40437 15.0875C2.40437 15.1295 2.41284 15.1711 2.42927 15.2097C2.4457 15.2484 2.46976 15.2833 2.5 15.3125L4.6875 17.5C4.74605 17.5582 4.82525 17.5909 4.90781 17.5909C4.99037 17.5909 5.06957 17.5582 5.12813 17.5L5.95312 16.675C6.62623 17.0876 7.35873 17.3943 8.125 17.5844V18.75C8.125 18.8329 8.15792 18.9124 8.21653 18.971C8.27513 19.0296 8.35462 19.0625 8.4375 19.0625H11.5625C11.6454 19.0625 11.7249 19.0296 11.7835 18.971C11.8421 18.9124 11.875 18.8329 11.875 18.75V17.5844C12.6373 17.3973 13.3665 17.0948 14.0375 16.6875L14.8625 17.5C14.8917 17.5302 14.9266 17.5543 14.9653 17.5707C15.0039 17.5872 15.0455 17.5956 15.0875 17.5956C15.1295 17.5956 15.1711 17.5872 15.2097 17.5707C15.2484 17.5543 15.2833 17.5302 15.3125 17.5L17.5 15.3125C17.5582 15.2539 17.5909 15.1747 17.5909 15.0922C17.5909 15.0096 17.5582 14.9304 17.5 14.8719L16.6875 14.0375C17.0948 13.3665 17.3973 12.6373 17.5844 11.875H18.75C18.8329 11.875 18.9124 11.8421 18.971 11.7835C19.0296 11.7249 19.0625 11.6454 19.0625 11.5625V8.4375C19.0625 8.35462 19.0296 8.27513 18.971 8.21653C18.9124 8.15792 18.8329 8.125 18.75 8.125H17.5844C17.3973 7.3627 17.0948 6.63345 16.6875 5.9625L17.5 5.1375C17.5302 5.10835 17.5543 5.0734 17.5707 5.03474C17.5872 4.99608 17.5956 4.95451 17.5956 4.9125C17.5956 4.87049 17.5872 4.82892 17.5707 4.79026C17.5543 4.7516 17.5302 4.71665 17.5 4.6875L15.3125 2.5C15.2539 2.4418 15.1747 2.40913 15.0922 2.40913C15.0096 2.40913 14.9304 2.4418 14.8719 2.5L14.0375 3.3125C13.3665 2.90516 12.6373 2.60271 11.875 2.41562V1.25C11.875 1.16712 11.8421 1.08763 11.7835 1.02903C11.7249 0.970424 11.6454 0.9375 11.5625 0.9375H8.4375C8.35462 0.9375 8.27513 0.970424 8.21653 1.02903C8.15792 1.08763 8.125 1.16712 8.125 1.25V2.41562C7.3627 2.60271 6.63345 2.90516 5.9625 3.3125L5.1375 2.5C5.10835 2.46976 5.0734 2.4457 5.03474 2.42927C4.99608 2.41284 4.95451 2.40437 4.9125 2.40437C4.87049 2.40437 4.82892 2.41284 4.79026 2.42927C4.7516 2.4457 4.71665 2.46976 4.6875 2.5L2.5 4.6875C2.4418 4.74605 2.40913 4.82525 2.40913 4.90781C2.40913 4.99037 2.4418 5.06957 2.5 5.12813L3.325 5.95312C2.91241 6.62623 2.60571 7.35873 2.41562 8.125H1.25ZM2.96875 8.50312C3.15129 7.64391 3.4914 6.82595 3.97187 6.09062C4.0116 6.03039 4.02926 5.95827 4.02185 5.8865C4.01445 5.81473 3.98244 5.74773 3.93125 5.69687L3.15 4.91875L4.91875 3.15L5.69687 3.93125C5.74773 3.98244 5.81473 4.01445 5.8865 4.02185C5.95827 4.02926 6.03039 4.0116 6.09062 3.97187C6.82595 3.4914 7.64391 3.15129 8.50312 2.96875C8.5742 2.9535 8.63773 2.91396 8.68279 2.85692C8.72785 2.79988 8.75162 2.72892 8.75 2.65625V1.5625H11.25V2.66562C11.2484 2.7383 11.2721 2.80926 11.3172 2.86629C11.3623 2.92333 11.4258 2.96288 11.4969 2.97812C12.3561 3.16066 13.174 3.50077 13.9094 3.98125C13.9696 4.02098 14.0417 4.03864 14.1135 4.03123C14.1853 4.02382 14.2523 3.99181 14.3031 3.94062L15.0812 3.15937L16.85 4.92813L16.0687 5.70625C16.0176 5.7571 15.9856 5.8241 15.9781 5.89587C15.9707 5.96764 15.9884 6.03977 16.0281 6.1C16.5086 6.83533 16.8487 7.65329 17.0312 8.5125C17.0465 8.58357 17.086 8.64711 17.1431 8.69217C17.2001 8.73723 17.2711 8.76099 17.3438 8.75938H18.4375V11.2594H17.3344C17.2617 11.2578 17.1907 11.2815 17.1337 11.3266C17.0767 11.3716 17.0371 11.4352 17.0219 11.5063C16.8393 12.3655 16.4992 13.1834 16.0187 13.9188C15.979 13.979 15.9614 14.0511 15.9688 14.1229C15.9762 14.1946 16.0082 14.2616 16.0594 14.3125L16.8406 15.0906L15.0719 16.8594L14.2938 16.0781C14.2429 16.0269 14.1759 15.9949 14.1041 15.9875C14.0324 15.9801 13.9602 15.9978 13.9 16.0375C13.1647 16.518 12.3467 16.8581 11.4875 17.0406C11.4164 17.0559 11.3529 17.0954 11.3078 17.1525C11.2628 17.2095 11.239 17.2805 11.2406 17.3531V18.4375H8.75V17.3344C8.75162 17.2617 8.72785 17.1907 8.68279 17.1337C8.63773 17.0767 8.5742 17.0371 8.50312 17.0219C7.64391 16.8393 6.82595 16.4992 6.09062 16.0187C6.03039 15.979 5.95827 15.9614 5.8865 15.9688C5.81473 15.9762 5.74773 16.0082 5.69687 16.0594L4.91875 16.8406L3.15 15.0719L3.93125 14.2938C3.98244 14.2429 4.01445 14.1759 4.02185 14.1041C4.02926 14.0324 4.0116 13.9602 3.97187 13.9C3.49246 13.1675 3.15238 12.3528 2.96875 11.4969C2.9535 11.4258 2.91396 11.3623 2.85692 11.3172C2.79988 11.2721 2.72892 11.2484 2.65625 11.25H1.5625V8.75H2.66562C2.73669 8.74945 2.80545 8.7247 2.86056 8.67982C2.91567 8.63493 2.95383 8.57261 2.96875 8.50312Z" fill="#2F89F8"/>
<path d="M11.5247 8.35791C11.4898 8.22566 11.3766 7.82891 10.6797 6.86791L10.0002 5.93335L9.32077 6.86791C8.62389 7.83773 8.51064 8.23448 8.4758 8.35791C8.29286 9.01915 8.4758 9.49525 8.65873 9.76856C8.95491 10.2094 9.45144 10.4739 9.99153 10.4739C10.5316 10.4739 11.0281 10.2094 11.3243 9.76856C11.5247 9.49525 11.7076 9.02797 11.5247 8.35791ZM10.6449 9.30128C10.4968 9.5217 10.2616 9.63631 10.0002 9.63631C9.73891 9.63631 9.50371 9.51288 9.35562 9.30128C9.20753 9.08087 9.21624 8.84282 9.28593 8.59596C9.36433 8.32264 9.66922 7.83773 10.0002 7.37927C10.3313 7.83773 10.6362 8.32264 10.7146 8.59596C10.7842 8.83401 10.793 9.08087 10.6449 9.30128Z" fill="#2F89F8"/>
</g>
<defs>
<clipPath id="clip0_69_159">
<rect width="20" height="20" fill="white"/>
</clipPath>
</defs>
</svg>
