<svg width="20" height="20" viewBox="0 0 20 20" fill="none" xmlns="http://www.w3.org/2000/svg">
<g clip-path="url(#clip0_18_691)">
<path d="M12.1879 15.624H5.3034C5.22052 15.624 5.14103 15.5911 5.08243 15.5325C5.02382 15.4739 4.9909 15.3944 4.9909 15.3115C4.9909 15.2286 5.02382 15.1492 5.08243 15.0906C5.14103 15.0319 5.22052 14.999 5.3034 14.999H11.8754V3.12402H0.625366V14.999H1.88482C1.9677 14.999 2.04718 15.0319 2.10579 15.0906C2.1644 15.1492 2.19732 15.2286 2.19732 15.3115C2.19732 15.3944 2.1644 15.4739 2.10579 15.5325C2.04718 15.5911 1.9677 15.624 1.88482 15.624H0.312866C0.271821 15.624 0.231174 15.616 0.19325 15.6003C0.155325 15.5846 0.120865 15.5616 0.0918422 15.5325C0.0628192 15.5035 0.0398015 15.4691 0.0241054 15.4311C0.00840923 15.3932 0.000342437 15.3526 0.000366264 15.3115V2.81152C0.000342437 2.77048 0.00840923 2.72983 0.0241054 2.69191C0.0398015 2.65398 0.0628192 2.61952 0.0918422 2.5905C0.120865 2.56148 0.155325 2.53846 0.19325 2.52276C0.231174 2.50707 0.271821 2.499 0.312866 2.49902H12.1879C12.2289 2.499 12.2696 2.50707 12.3075 2.52276C12.3454 2.53846 12.3799 2.56148 12.4089 2.5905C12.4379 2.61952 12.4609 2.65398 12.4766 2.69191C12.4923 2.72983 12.5004 2.77048 12.5004 2.81152V15.3115C12.5004 15.3526 12.4923 15.3932 12.4766 15.4311C12.4609 15.4691 12.4379 15.5035 12.4089 15.5325C12.3799 15.5616 12.3454 15.5846 12.3075 15.6003C12.2696 15.616 12.2289 15.624 12.1879 15.624Z" fill="#2F89F8"/>
<path d="M13.1324 15.6259H13.1321L12.1876 15.624C12.1047 15.624 12.0252 15.591 11.9667 15.5324C11.9081 15.4737 11.8752 15.3942 11.8752 15.3114C11.8753 15.2285 11.9082 15.149 11.9669 15.0904C12.0255 15.0319 12.105 14.999 12.1879 14.999H12.1882L13.1327 15.0009C13.2156 15.0009 13.2951 15.0339 13.3537 15.0925C13.4122 15.1511 13.4451 15.2306 13.4451 15.3135C13.445 15.3964 13.4121 15.4759 13.3534 15.5344C13.2948 15.593 13.2153 15.6259 13.1324 15.6259H13.1324Z" fill="#2F89F8"/>
<path d="M16.5629 15.6259C16.48 15.626 16.4005 15.5931 16.3418 15.5345C16.2832 15.4759 16.2503 15.3965 16.2502 15.3136C16.2502 15.2307 16.2831 15.1512 16.3416 15.0926C16.4002 15.0339 16.4797 15.001 16.5626 15.0009L18.8782 14.9991C18.9496 14.9991 19.02 14.9831 19.0844 14.9523C19.1488 14.9215 19.2054 14.8767 19.2502 14.8212C19.3014 14.7589 19.3383 14.686 19.3581 14.6078C19.3779 14.5297 19.3803 14.4481 19.365 14.3689L18.8648 11.662C18.8452 11.5453 18.7857 11.4391 18.6964 11.3615C18.6071 11.2839 18.4936 11.2397 18.3753 11.2366H12.1879C12.105 11.2366 12.0255 11.2036 11.9669 11.145C11.9083 11.0864 11.8754 11.007 11.8754 10.9241C11.8754 10.8412 11.9083 10.7617 11.9669 10.7031C12.0255 10.6445 12.105 10.6116 12.1879 10.6116H18.3753C18.6394 10.6148 18.8941 10.71 19.0956 10.8808C19.297 11.0516 19.4327 11.2873 19.4791 11.5473L19.9796 14.2554C20.0117 14.4247 20.006 14.5989 19.963 14.7658C19.9201 14.9326 19.8408 15.0879 19.7309 15.2206C19.6272 15.3465 19.4971 15.4478 19.3498 15.5176C19.2024 15.5873 19.0415 15.6237 18.8785 15.6241L16.5632 15.6259L16.5629 15.6259Z" fill="#2F89F8"/>
<path d="M3.59412 17.5007C3.19237 17.5007 2.79965 17.3816 2.46562 17.1584C2.13158 16.9352 1.87123 16.618 1.71749 16.2468C1.56375 15.8756 1.52352 15.4672 1.6019 15.0732C1.68027 14.6792 1.87373 14.3172 2.15781 14.0332C2.44188 13.7491 2.80382 13.5556 3.19784 13.4773C3.59186 13.3989 4.00028 13.4391 4.37144 13.5929C4.74261 13.7466 5.05984 14.0069 5.28304 14.341C5.50624 14.675 5.62537 15.0677 5.62537 15.4695C5.62474 16.008 5.41054 16.5243 5.02974 16.9051C4.64894 17.2859 4.13265 17.5001 3.59412 17.5007ZM3.59412 14.0632C3.31599 14.0632 3.0441 14.1457 2.81285 14.3002C2.58159 14.4548 2.40135 14.6744 2.29491 14.9313C2.18848 15.1883 2.16063 15.471 2.21489 15.7438C2.26915 16.0166 2.40308 16.2672 2.59975 16.4639C2.79642 16.6605 3.04699 16.7945 3.31977 16.8487C3.59256 16.903 3.87531 16.8751 4.13227 16.7687C4.38922 16.6623 4.60885 16.482 4.76337 16.2508C4.91789 16.0195 5.00037 15.7476 5.00037 15.4695C4.99996 15.0966 4.85167 14.7392 4.58804 14.4756C4.3244 14.2119 3.96695 14.0636 3.59412 14.0632Z" fill="#2F89F8"/>
<path d="M14.8477 17.501C14.4461 17.5003 14.0537 17.3806 13.7201 17.157C13.3865 16.9334 13.1267 16.6159 12.9735 16.2447C12.8203 15.8735 12.7805 15.4652 12.8593 15.0714C12.938 14.6776 13.1317 14.316 13.416 14.0322C13.7002 13.7485 14.0621 13.5554 14.456 13.4773C14.85 13.3992 15.2582 13.4396 15.6292 13.5934C16.0001 13.7473 16.3172 14.0076 16.5402 14.3416C16.7633 14.6755 16.8823 15.0681 16.8823 15.4697C16.8812 16.0087 16.6664 16.5252 16.285 16.906C15.9036 17.2868 15.3867 17.5008 14.8477 17.501ZM14.8477 14.0635C14.5697 14.0641 14.2982 14.1472 14.0674 14.3021C13.8366 14.457 13.6568 14.6769 13.5509 14.9339C13.445 15.1909 13.4176 15.4736 13.4723 15.7461C13.5269 16.0187 13.6611 16.2689 13.8579 16.4653C14.0547 16.6616 14.3053 16.7952 14.578 16.8492C14.8507 16.9032 15.1332 16.8751 15.39 16.7686C15.6468 16.6621 15.8662 16.4818 16.0206 16.2506C16.1749 16.0195 16.2573 15.7477 16.2573 15.4697C16.2564 15.0965 16.1075 14.7388 15.8432 14.4752C15.579 14.2116 15.221 14.0635 14.8477 14.0635Z" fill="#2F89F8"/>
<path d="M19.3952 13.124H17.8129C17.73 13.124 17.6505 13.0911 17.5919 13.0325C17.5333 12.9739 17.5004 12.8944 17.5004 12.8115C17.5004 12.7286 17.5333 12.6492 17.5919 12.5906C17.6505 12.5319 17.73 12.499 17.8129 12.499H19.3952C19.4781 12.499 19.5576 12.5319 19.6162 12.5906C19.6748 12.6492 19.7077 12.7286 19.7077 12.8115C19.7077 12.8944 19.6748 12.9739 19.6162 13.0325C19.5576 13.0911 19.4781 13.124 19.3952 13.124H19.3952Z" fill="#2F89F8"/>
<path d="M12.1879 12.8114C12.1468 12.8115 12.1062 12.8034 12.0682 12.7877C12.0303 12.772 11.9959 12.749 11.9668 12.72C11.9378 12.6909 11.9148 12.6565 11.8991 12.6185C11.8834 12.5806 11.8753 12.54 11.8754 12.4989V6.56143C11.8753 6.52039 11.8834 6.47974 11.8991 6.44182C11.9148 6.40389 11.9378 6.36943 11.9668 6.34041C11.9959 6.31139 12.0303 6.28837 12.0682 6.27267C12.1062 6.25698 12.1468 6.24891 12.1879 6.24893H15.438C15.6308 6.24555 15.8205 6.29778 15.9844 6.39936C16.1484 6.50094 16.2796 6.64758 16.3624 6.82175L18.0991 10.7988C18.1158 10.8364 18.1249 10.877 18.1259 10.9182C18.1269 10.9593 18.1197 11.0003 18.1048 11.0387C18.0899 11.077 18.0675 11.1121 18.039 11.1418C18.0105 11.1715 17.9764 11.1953 17.9387 11.2118C17.901 11.2283 17.8604 11.2372 17.8192 11.2379C17.778 11.2386 17.7371 11.2312 17.6988 11.2161C17.6605 11.201 17.6256 11.1784 17.596 11.1498C17.5665 11.1211 17.5429 11.0869 17.5266 11.049L15.7892 7.07108C15.7551 7.00859 15.704 6.95697 15.6419 6.92211C15.5798 6.88725 15.5091 6.87056 15.438 6.87393H12.5004V12.4989C12.5004 12.54 12.4923 12.5806 12.4766 12.6185C12.4609 12.6565 12.4379 12.6909 12.4089 12.72C12.3799 12.749 12.3454 12.772 12.3075 12.7877C12.2696 12.8034 12.2289 12.8115 12.1879 12.8114Z" fill="#2F89F8"/>
<path d="M9.99976 12.812H2.49976C2.45871 12.812 2.41806 12.804 2.38014 12.7883C2.34221 12.7726 2.30775 12.7496 2.27873 12.7205C2.24971 12.6915 2.22669 12.6571 2.21099 12.6191C2.1953 12.5812 2.18723 12.5406 2.18726 12.4995V4.99951C2.18723 4.95847 2.1953 4.91782 2.211 4.8799C2.22669 4.84197 2.24971 4.80751 2.27873 4.77849C2.30776 4.74947 2.34221 4.72645 2.38014 4.71075C2.41806 4.69506 2.45871 4.68699 2.49976 4.68701H9.99976C10.0408 4.68699 10.0814 4.69505 10.1194 4.71075C10.1573 4.72645 10.1918 4.74946 10.2208 4.77849C10.2498 4.80751 10.2728 4.84197 10.2885 4.8799C10.3042 4.91782 10.3123 4.95847 10.3123 4.99951V12.4995C10.3123 12.5406 10.3042 12.5812 10.2885 12.6191C10.2728 12.6571 10.2498 12.6915 10.2208 12.7205C10.1918 12.7496 10.1573 12.7726 10.1194 12.7883C10.0814 12.804 10.0408 12.812 9.99976 12.812ZM2.81226 12.187H9.68726V5.31201H2.81226V12.187Z" fill="#2F89F8"/>
<path d="M3.59412 16.2495C3.4396 16.2495 3.28855 16.2037 3.16008 16.1178C3.0316 16.032 2.93147 15.91 2.87234 15.7672C2.8132 15.6245 2.79773 15.4674 2.82788 15.3158C2.85802 15.1643 2.93243 15.0251 3.04169 14.9158C3.15095 14.8066 3.29015 14.7322 3.4417 14.702C3.59325 14.6719 3.75033 14.6874 3.89309 14.7465C4.03584 14.8056 4.15786 14.9057 4.2437 15.0342C4.32955 15.1627 4.37537 15.3137 4.37537 15.4683C4.37518 15.6754 4.2928 15.874 4.14633 16.0205C3.99986 16.1669 3.80126 16.2493 3.59412 16.2495ZM3.59412 15.312C3.56321 15.312 3.533 15.3212 3.50731 15.3383C3.48161 15.3555 3.46159 15.3799 3.44976 15.4085C3.43793 15.437 3.43484 15.4684 3.44087 15.4987C3.4469 15.5291 3.46178 15.5569 3.48363 15.5787C3.50548 15.6006 3.53332 15.6155 3.56363 15.6215C3.59394 15.6275 3.62536 15.6244 3.65391 15.6126C3.68246 15.6008 3.70686 15.5808 3.72403 15.5551C3.7412 15.5294 3.75037 15.4992 3.75037 15.4683C3.75028 15.4268 3.7338 15.3872 3.70451 15.3579C3.67523 15.3286 3.63553 15.3121 3.59412 15.312Z" fill="#2F89F8"/>
<path d="M14.8441 16.2495C14.6896 16.2495 14.5386 16.2037 14.4101 16.1178C14.2816 16.032 14.1815 15.91 14.1223 15.7672C14.0632 15.6245 14.0477 15.4674 14.0779 15.3158C14.108 15.1643 14.1824 15.0251 14.2917 14.9158C14.4009 14.8066 14.5402 14.7322 14.6917 14.702C14.8433 14.6719 15.0003 14.6874 15.1431 14.7465C15.2858 14.8056 15.4079 14.9057 15.4937 15.0342C15.5795 15.1627 15.6254 15.3137 15.6254 15.4683C15.6252 15.6754 15.5428 15.874 15.3963 16.0205C15.2499 16.1669 15.0513 16.2493 14.8441 16.2495ZM14.8441 15.312C14.8132 15.312 14.783 15.3212 14.7573 15.3383C14.7316 15.3555 14.7116 15.3799 14.6998 15.4085C14.6879 15.437 14.6848 15.4684 14.6909 15.4987C14.6969 15.5291 14.7118 15.5569 14.7336 15.5787C14.7555 15.6006 14.7833 15.6155 14.8136 15.6215C14.8439 15.6275 14.8754 15.6244 14.9039 15.6126C14.9325 15.6008 14.9569 15.5808 14.974 15.5551C14.9912 15.5294 15.0004 15.4992 15.0004 15.4683C15.0003 15.4268 14.9838 15.3872 14.9545 15.3579C14.9252 15.3286 14.8855 15.3121 14.8441 15.312Z" fill="#2F89F8"/>
<path d="M7.44114 8.72744C7.41392 8.62412 7.32544 8.31416 6.781 7.56338L6.25017 6.83325L5.71934 7.56338C5.17489 8.32105 5.08642 8.63101 5.0592 8.72744C4.91628 9.24404 5.0592 9.61599 5.20211 9.82951C5.4335 10.1739 5.82142 10.3805 6.24336 10.3805C6.66531 10.3805 7.05322 10.1739 7.28461 9.82951C7.44114 9.61599 7.58406 9.25092 7.44114 8.72744ZM6.75378 9.46445C6.63808 9.63665 6.45433 9.72619 6.25017 9.72619C6.046 9.72619 5.86225 9.62976 5.74656 9.46445C5.63086 9.29225 5.63767 9.10628 5.69211 8.91341C5.75336 8.69989 5.99156 8.32105 6.25017 7.96288C6.50878 8.32105 6.74697 8.69989 6.80822 8.91341C6.86267 9.09939 6.86947 9.29225 6.75378 9.46445Z" fill="#2F89F8"/>
</g>
<defs>
<clipPath id="clip0_18_691">
<rect width="20" height="20" fill="white"/>
</clipPath>
</defs>
</svg>
