<svg width="50" height="50" viewBox="0 0 50 50" fill="none" xmlns="http://www.w3.org/2000/svg">
<g clip-path="url(#clip0_11_787)">
<path d="M30.4688 20.3125H19.5312V21.875H30.4688V20.3125Z" fill="#2F89F8"/>
<path d="M48.2086 22.4273C48.5299 22.108 48.7847 21.728 48.9581 21.3095C49.1315 20.8909 49.2201 20.4421 49.2188 19.9891V18.75C49.2145 16.9315 48.789 15.1387 47.9757 13.5121C47.1625 11.8856 45.9835 10.4695 44.5313 9.375C43.7024 8.74904 43.1557 7.81992 43.0109 6.79141C43.2362 6.65172 43.4222 6.45704 43.5515 6.22565C43.6808 5.99427 43.7491 5.7338 43.75 5.46875V2.34375C43.75 1.92935 43.5854 1.53192 43.2924 1.2389C42.9993 0.94587 42.6019 0.78125 42.1875 0.78125H34.375C33.9606 0.78125 33.5632 0.94587 33.2701 1.2389C32.9771 1.53192 32.8125 1.92935 32.8125 2.34375V5.46875C32.8134 5.7338 32.8817 5.99427 33.011 6.22565C33.1403 6.45704 33.3263 6.65172 33.5516 6.79141C33.4068 7.81992 32.8601 8.74904 32.0313 9.375C31.3825 9.86338 30.7863 10.4179 30.2523 11.0297C29.3754 9.80937 28.9045 8.34414 28.9063 6.84141V6.81406C29.143 6.67802 29.3398 6.4821 29.4769 6.24597C29.6141 6.00984 29.6867 5.74181 29.6875 5.46875V2.34375C29.6875 1.92935 29.5229 1.53192 29.2299 1.2389C28.9368 0.94587 28.5394 0.78125 28.125 0.78125H21.875C21.4606 0.78125 21.0632 0.94587 20.7702 1.2389C20.4771 1.53192 20.3125 1.92935 20.3125 2.34375V5.46875C20.3133 5.74181 20.3859 6.00984 20.5231 6.24597C20.6602 6.4821 20.857 6.67802 21.0938 6.81406V6.84141C21.0964 7.7901 20.9109 8.72989 20.5478 9.60638C20.1848 10.4829 19.6516 11.2787 18.9789 11.9477C17.837 13.0884 17.034 14.5237 16.6594 16.0938C15.5459 13.6653 14.9347 11.0369 14.8625 8.36641C15.0942 8.22882 15.2863 8.03347 15.42 7.79945C15.5536 7.56543 15.6243 7.30074 15.625 7.03125V2.34375C15.625 1.92935 15.4604 1.53192 15.1674 1.2389C14.8743 0.94587 14.4769 0.78125 14.0625 0.78125H6.25C5.8356 0.78125 5.43818 0.94587 5.14515 1.2389C4.85212 1.53192 4.6875 1.92935 4.6875 2.34375V7.03125C4.68823 7.30046 4.75871 7.56489 4.89207 7.79875C5.02543 8.03261 5.21712 8.22791 5.44844 8.36563C5.35205 12.096 4.2026 15.7231 2.13282 18.8281C1.24998 20.15 0.77957 21.7042 0.781255 23.2938V45.3125C0.782495 46.3481 1.19444 47.341 1.92674 48.0733C2.65903 48.8056 3.65188 49.2175 4.6875 49.2188H15.625C16.2385 49.2192 16.8434 49.0741 17.3898 48.7953C17.6409 48.9734 17.9252 49.0992 18.2259 49.1652C18.5265 49.2313 18.8373 49.2364 19.1399 49.18C19.4425 49.1237 19.7307 49.0072 19.9875 48.8374C20.2442 48.6675 20.4642 48.4479 20.6344 48.1914L21.3102 47.1758C21.3756 47.0876 21.4607 47.0159 21.5588 46.9665C21.6569 46.9171 21.7652 46.8914 21.875 46.8914C21.9848 46.8914 22.0931 46.9171 22.1912 46.9665C22.2893 47.0159 22.3744 47.0876 22.4398 47.1758L23.1352 48.2195C23.3399 48.5265 23.6172 48.7782 23.9425 48.9523C24.2678 49.1264 24.631 49.2174 25 49.2174C25.369 49.2174 25.7322 49.1264 26.0575 48.9523C26.3828 48.7782 26.6602 48.5265 26.8649 48.2195L27.5602 47.1758C27.6256 47.0876 27.7107 47.0159 27.8088 46.9665C27.9069 46.9171 28.0152 46.8914 28.125 46.8914C28.2348 46.8914 28.3431 46.9171 28.4412 46.9665C28.5393 47.0159 28.6244 47.0876 28.6898 47.1758L29.3656 48.1914C29.5731 48.5021 29.853 48.7575 30.1814 48.9357C30.5097 49.1139 30.8765 49.2094 31.25 49.2141V49.2188H45.3125C46.3481 49.2175 47.341 48.8056 48.0733 48.0733C48.8056 47.341 49.2175 46.3481 49.2188 45.3125V32.3547C49.2201 31.9016 49.1315 31.4528 48.9581 31.0343C48.7847 30.6157 48.5299 30.2358 48.2086 29.9164C47.8562 29.5618 47.6578 29.0827 47.6563 28.5828V23.7609C47.6578 23.2611 47.8562 22.7819 48.2086 22.4273ZM47.1039 31.0211C47.4171 31.3399 47.6074 31.7591 47.6414 32.2047L45.5734 30.9641C45.0068 30.632 44.3588 30.4644 43.7022 30.4801C43.0456 30.4959 42.4064 30.6943 41.8563 31.0531L40.8102 31.75C40.5201 31.9371 40.1801 32.0321 39.835 32.0225C39.4899 32.0129 39.1558 31.8991 38.8766 31.6961L37.7164 30.8266C36.9086 30.2417 35.9643 29.8738 34.9738 29.7579C33.9833 29.6421 32.9796 29.7822 32.0586 30.1648C32.0453 30.0055 32.0313 29.8438 32.0313 29.6875C32.0321 28.7828 32.2429 27.8907 32.6469 27.0813C33.2685 25.8341 33.5926 24.4599 33.5938 23.0664V21.0938H47.2914C47.235 21.1749 47.1723 21.2514 47.1039 21.3227C46.7826 21.642 46.5278 22.022 46.3544 22.4405C46.181 22.8591 46.0924 23.3079 46.0938 23.7609V28.5828C46.0924 29.0359 46.181 29.4847 46.3544 29.9032C46.5278 30.3218 46.7826 30.7017 47.1039 31.0211ZM33.5156 35.1562C33.3886 34.1618 33.096 33.1955 32.65 32.2977C32.558 32.1116 32.4761 31.9207 32.4047 31.7258C33.0961 31.378 33.8698 31.2268 34.6413 31.2886C35.4128 31.3505 36.1525 31.623 36.7797 32.0766L37.9398 32.9461C38.4798 33.3383 39.1258 33.5582 39.7929 33.5767C40.46 33.5953 41.1172 33.4116 41.6781 33.05L42.7242 32.3531C43.0269 32.1553 43.3788 32.046 43.7403 32.0373C44.1017 32.0286 44.4585 32.1209 44.7703 32.3039L47.6563 34.0359V35.1562H33.5156ZM16.4063 36.3063V42.9688H2.34375V25.7812H16.8414C16.9779 26.2256 17.1488 26.6587 17.3523 27.0766C17.7577 27.8872 17.9688 28.7811 17.9688 29.6875C17.9688 30.5939 17.7577 31.4878 17.3523 32.2984C16.7318 33.5434 16.4079 34.9152 16.4063 36.3063ZM17.9688 23.0688V18.75H32.0313V23.0664C32.0313 23.1906 32.0156 23.3141 32.0094 23.4375H17.9906C17.9844 23.3141 17.9688 23.1922 17.9688 23.0688ZM34.375 2.34375H42.1875V5.46875H34.375V2.34375ZM32.9688 10.625C34.1221 9.75325 34.8854 8.46201 35.093 7.03125H41.4695C41.6772 8.46201 42.4404 9.75325 43.5938 10.625C44.8523 11.5736 45.8741 12.8009 46.5789 14.2105C47.2838 15.6202 47.6525 17.174 47.6563 18.75V19.5312H33.5938V18.1586C33.5968 15.9699 32.776 13.8603 31.2945 12.2492C31.788 11.645 32.3498 11.1 32.9688 10.625ZM21.875 2.34375H28.125V5.46875H21.875V2.34375ZM20.0836 13.0523C21.6876 11.4544 22.6069 9.29502 22.6469 7.03125H27.3531C27.3931 9.29502 28.3124 11.4544 29.9164 13.0523C31.0347 14.1677 31.7527 15.6216 31.9586 17.1875H18.0414C18.2473 15.6216 18.9653 14.1677 20.0836 13.0523ZM6.25 7.03125V5.46875H14.0625V7.03125H6.25ZM14.0625 2.34375V3.90625H6.25V2.34375H14.0625ZM3.4336 19.6961C5.63077 16.3984 6.86649 12.5541 7.00235 8.59375H13.3086C13.4387 12.251 14.5053 15.8136 16.4063 18.9406V23.0688C16.4073 23.4534 16.4334 23.8375 16.4844 24.2188H2.34375V23.2938C2.34243 22.013 2.72177 20.7608 3.4336 19.6961ZM4.6875 47.6562C4.0659 47.6562 3.46976 47.4093 3.03022 46.9698C2.59068 46.5302 2.34375 45.9341 2.34375 45.3125V44.5312H16.4063V46.9109C16.4078 47.1049 16.4341 47.2978 16.4844 47.4852C16.2114 47.5962 15.9197 47.6543 15.625 47.6562H4.6875ZM30.6656 47.3242L29.9899 46.3086C29.7852 46.0016 29.5078 45.7499 29.1825 45.5758C28.8572 45.4018 28.494 45.3107 28.125 45.3107C27.756 45.3107 27.3928 45.4018 27.0675 45.5758C26.7422 45.7499 26.4649 46.0016 26.2602 46.3086L25.5648 47.3523C25.4994 47.4406 25.4143 47.5122 25.3162 47.5616C25.2181 47.611 25.1098 47.6367 25 47.6367C24.8902 47.6367 24.7819 47.611 24.6838 47.5616C24.5857 47.5122 24.5006 47.4406 24.4352 47.3523L23.7398 46.3086C23.5352 46.0016 23.2578 45.7499 22.9325 45.5758C22.6072 45.4018 22.244 45.3107 21.875 45.3107C21.506 45.3107 21.1428 45.4018 20.8175 45.5758C20.4922 45.7499 20.2149 46.0016 20.0102 46.3086L19.3344 47.3242C19.2457 47.4574 19.1165 47.5585 18.9659 47.6125C18.8153 47.6666 18.6513 47.6708 18.4982 47.6244C18.345 47.5781 18.2109 47.4837 18.1155 47.3552C18.0202 47.2267 17.9687 47.0709 17.9688 46.9109V36.3063C17.9702 35.1576 18.2376 34.0249 18.75 32.9969C19.2638 31.9693 19.5312 30.8363 19.5312 29.6875C19.5312 28.5387 19.2638 27.4057 18.75 26.3781C18.5335 25.937 18.3615 25.4753 18.2367 25H31.7633C31.6381 25.4757 31.4662 25.9379 31.25 26.3797C30.7367 27.4071 30.4695 28.5398 30.4695 29.6883C30.4695 30.8368 30.7367 31.9695 31.25 32.9969C31.7628 34.025 32.0302 35.1581 32.0313 36.307V46.9109C32.0313 47.0709 31.9798 47.2267 31.8845 47.3552C31.7891 47.4837 31.655 47.5781 31.5018 47.6244C31.3487 47.6708 31.1847 47.6666 31.0341 47.6125C30.8835 47.5585 30.7543 47.4574 30.6656 47.3242ZM45.3125 47.6562H33.4594C33.5456 47.4171 33.591 47.1651 33.5938 46.9109V36.7188H47.6563V45.3125C47.6563 45.9341 47.4093 46.5302 46.9698 46.9698C46.5302 47.4093 45.9341 47.6562 45.3125 47.6562Z" fill="#2F89F8"/>
<path d="M40.4688 22.9687C40.3927 22.8766 40.2973 22.8024 40.1892 22.7514C40.0812 22.7005 39.9632 22.6741 39.8438 22.6741C39.7243 22.6741 39.6063 22.7005 39.4983 22.7514C39.3902 22.8024 39.2948 22.8766 39.2188 22.9687L37.3438 25.4687C36.9955 25.933 36.7835 26.4851 36.7314 27.0631C36.6793 27.6411 36.7891 28.2222 37.0487 28.7413C37.3082 29.2604 37.7072 29.6969 38.2008 30.002C38.6945 30.3071 39.2634 30.4687 39.8438 30.4687C40.4241 30.4687 40.993 30.3071 41.4867 30.002C41.9803 29.6969 42.3793 29.2604 42.6388 28.7413C42.8984 28.2222 43.0082 27.6411 42.9561 27.0631C42.904 26.4851 42.692 25.933 42.3438 25.4687L40.4688 22.9687ZM39.8438 28.9062C39.5536 28.9062 39.2691 28.8254 39.0223 28.6729C38.7755 28.5203 38.576 28.3021 38.4462 28.0425C38.3164 27.783 38.2615 27.4924 38.2876 27.2034C38.3136 26.9144 38.4196 26.6384 38.5938 26.4062L39.8438 24.7398L41.0938 26.4062C41.2679 26.6384 41.3739 26.9144 41.3999 27.2034C41.426 27.4924 41.3711 27.783 41.2413 28.0425C41.1115 28.3021 40.912 28.5203 40.6652 28.6729C40.4184 28.8254 40.1339 28.9062 39.8438 28.9062Z" fill="#2F89F8"/>
<path d="M13.2812 28.9062H7.03125C6.40965 28.9062 5.81351 29.1532 5.37397 29.5927C4.93443 30.0323 4.6875 30.6284 4.6875 31.25V37.5C4.6875 38.1216 4.93443 38.7177 5.37397 39.1573C5.81351 39.5968 6.40965 39.8438 7.03125 39.8438H13.2812C13.9029 39.8438 14.499 39.5968 14.9385 39.1573C15.3781 38.7177 15.625 38.1216 15.625 37.5V31.25C15.625 30.6284 15.3781 30.0323 14.9385 29.5927C14.499 29.1532 13.9029 28.9062 13.2812 28.9062ZM14.0625 37.5C14.0625 37.7072 13.9802 37.9059 13.8337 38.0524C13.6872 38.1989 13.4885 38.2812 13.2812 38.2812H7.03125C6.82405 38.2812 6.62534 38.1989 6.47882 38.0524C6.33231 37.9059 6.25 37.7072 6.25 37.5V31.25C6.25 31.0428 6.33231 30.8441 6.47882 30.6976C6.62534 30.5511 6.82405 30.4688 7.03125 30.4688H13.2812C13.4885 30.4688 13.6872 30.5511 13.8337 30.6976C13.9802 30.8441 14.0625 31.0428 14.0625 31.25V37.5Z" fill="#2F89F8"/>
</g>
<defs>
<clipPath id="clip0_11_787">
<rect width="50" height="50" fill="white"/>
</clipPath>
</defs>
</svg>
