<svg width="50" height="50" viewBox="0 0 50 50" fill="none" xmlns="http://www.w3.org/2000/svg">
<g clip-path="url(#clip0_11_748)">
<path d="M44.5375 6.63904C41.5235 6.63904 39.0703 9.09138 39.0688 12.1054V12.1062V28.525H37.5047C37.0727 28.525 36.7235 28.8742 36.7235 29.3062V33.9859C36.7235 34.4179 37.0727 34.7672 37.5047 34.7672H39.0672V35.55C38.6352 35.55 38.286 35.8992 38.286 36.3312C38.286 36.7633 38.6352 37.1125 39.0672 37.1125V38.675C39.0672 39.107 39.4164 39.4562 39.8485 39.4562H40.1141C39.7649 40.7984 38.5547 41.7953 37.1055 41.7976C37.1031 41.7976 37.1016 41.7968 37.1 41.7968H4.68127C2.96018 41.7968 1.5594 40.3961 1.5594 38.675C1.5594 38.6695 1.55627 38.6648 1.55627 38.6594V13.6687C1.55627 12.65 2.21409 11.7906 3.12346 11.4679V14.4461C3.12346 14.4492 3.1219 14.4508 3.1219 14.4539C3.1219 14.6703 3.2094 14.8656 3.35159 15.007C3.49299 15.1492 3.68831 15.2367 3.90471 15.2367C3.90784 15.2367 3.9094 15.2351 3.91252 15.2351H4.68596V34.7633C4.68596 37.3476 6.78831 39.4492 9.37346 39.4492C11.9586 39.4492 14.061 37.3476 14.061 34.7633V15.2344H14.8438V34.7625C14.8438 37.3468 16.9461 39.4484 19.5313 39.4484C22.1156 39.4484 24.2172 37.3468 24.2172 34.7625V15.2344H25V34.7625C25 37.3468 27.1024 39.4484 29.6875 39.4484C32.2727 39.4484 34.375 37.3468 34.375 34.7625V15.2344H35.1453C35.1485 15.2344 35.15 15.2359 35.1531 15.2359C35.3688 15.2359 35.5641 15.1484 35.7055 15.007C35.8485 14.8648 35.936 14.6695 35.936 14.4531C35.936 14.45 35.9344 14.4484 35.9344 14.4453L35.936 8.98279C35.936 7.6906 34.8844 6.63904 33.5922 6.63904H5.46721C4.17502 6.63904 3.12346 7.6906 3.12346 8.98279V9.84138C1.34065 10.2031 -0.00622559 11.7812 -0.00622559 13.6687V38.675C-0.00622559 38.682 -0.00231934 38.6883 -0.00231934 38.6945C0.00939941 41.2687 2.10471 43.3593 4.68127 43.3593H37.0922C37.0953 43.3593 37.0969 43.3609 37.1 43.3609C39.418 43.3609 41.343 41.6687 41.7164 39.4562H42.193C42.625 39.4562 42.9742 39.107 42.9742 38.675V37.1125C43.4055 37.1109 43.7539 36.7625 43.7539 36.3312C43.7539 35.9 43.4055 35.5515 42.9742 35.55V34.7672H45.318C45.75 34.7672 46.0992 34.4179 46.0992 33.9859V26.1734C46.0992 25.7414 45.75 25.3922 45.318 25.3922C44.886 25.3922 44.5367 25.7414 44.5367 26.1734V28.525H42.9742V12.1062C42.9742 11.2453 43.6742 10.5453 44.5352 10.5453C45.3969 10.5453 46.0977 11.2453 46.0977 12.1062V16.7984C46.0977 17.2304 46.4469 17.5797 46.8789 17.5797H49.2227C49.6547 17.5797 50.0039 17.2304 50.0039 16.7984V12.1156C50.0039 12.1125 50.0055 12.1109 50.0055 12.1078C50.0063 9.09294 47.5524 6.63904 44.5375 6.63904ZM12.4985 34.7625C12.4985 36.4843 11.0969 37.8859 9.37346 37.8859C7.65002 37.8859 6.24846 36.4843 6.24846 34.7625V18.3562H12.4985V34.7625ZM12.4985 16.7937H6.24846V15.2344H7.79456H7.79846H10.9281C10.9313 15.2344 10.9328 15.2359 10.936 15.2359C10.9391 15.2359 10.9406 15.2344 10.9438 15.2344H12.4985V16.7937ZM8.58362 13.6719L8.58831 12.8875H10.1547V13.6719H8.58362ZM22.6547 34.7625C22.6547 36.4843 21.2531 37.8859 19.5313 37.8859C17.8078 37.8859 16.4063 36.4843 16.4063 34.7625V18.3562H22.6547V34.7625ZM22.6547 16.7937H16.4063V15.2344H17.9555H17.9594H21.0891C21.0922 15.2344 21.0938 15.2359 21.0969 15.2359C21.1 15.2359 21.1016 15.2344 21.1047 15.2344H22.6547V16.7937ZM18.7446 13.6719L18.7492 12.8875H20.3156V13.6719H18.7446ZM32.8125 34.7625C32.8125 36.4843 31.411 37.8859 29.6875 37.8859C27.9641 37.8859 26.5625 36.4843 26.5625 34.7625V18.3562H32.8125V34.7625ZM32.8125 16.7937H26.5625V15.2344H28.1164H28.1203H31.25C31.2531 15.2344 31.2547 15.2359 31.2578 15.2359C31.261 15.2359 31.2625 15.2344 31.2656 15.2344H32.8125V16.7937ZM28.9055 13.6719L28.9102 12.8875H30.4766V13.6719H28.9055ZM4.68596 8.98279C4.68596 8.55154 5.03596 8.20154 5.46721 8.20154H33.5922C34.0235 8.20154 34.3735 8.55154 34.3735 8.98279L34.3719 13.6719H32.0391V12.1062C32.0391 11.6742 31.6899 11.325 31.2578 11.325H28.1367C28.1352 11.325 28.1344 11.325 28.1328 11.325C28.025 11.325 27.9227 11.3469 27.8297 11.3859C27.761 11.4148 27.7047 11.4617 27.6485 11.5078C27.6281 11.5242 27.6008 11.5336 27.5821 11.5523C27.536 11.5984 27.5071 11.657 27.4735 11.7117C27.4555 11.7422 27.4274 11.7672 27.4141 11.8C27.3946 11.8469 27.3938 11.9 27.3828 11.95C27.3719 12.0008 27.3516 12.0476 27.3516 12.1015L27.343 13.6719H21.8781V12.1062C21.8781 11.6742 21.5289 11.325 21.0969 11.325H17.9758C17.9742 11.325 17.9735 11.325 17.9719 11.325C17.8641 11.325 17.7617 11.3469 17.6688 11.3859C17.6 11.4148 17.5438 11.4617 17.4875 11.5078C17.4672 11.5242 17.4399 11.5336 17.4211 11.5523C17.375 11.5984 17.3461 11.657 17.3125 11.7117C17.2946 11.7422 17.2664 11.7672 17.2531 11.8C17.2336 11.8469 17.2328 11.9 17.2219 11.95C17.211 12.0008 17.1906 12.0476 17.1906 12.1015L17.1821 13.6719H11.7172V12.1062C11.7172 11.6742 11.368 11.325 10.936 11.325H7.81487C7.81331 11.325 7.81252 11.325 7.81096 11.325C7.70315 11.325 7.60081 11.3469 7.50784 11.3859C7.43909 11.4148 7.38284 11.4617 7.32659 11.5078C7.30627 11.5242 7.27893 11.5336 7.26018 11.5523C7.21409 11.5984 7.18518 11.657 7.15159 11.7117C7.13362 11.7422 7.10549 11.7672 7.09221 11.8C7.07268 11.8469 7.0719 11.9 7.06096 11.95C7.05002 12.0008 7.02971 12.0476 7.02971 12.1015L7.02112 13.6719H4.68596V8.98279ZM41.4125 37.8937H41.0141C41.011 37.8937 41.0094 37.8922 41.0063 37.8922C41.0031 37.8922 41.0016 37.8937 40.9985 37.8937H40.6289V37.1125H41.4117V37.8937H41.4125ZM41.4125 35.55H40.6297V34.7672H41.4125V35.55ZM44.5375 30.0875V33.2047H38.286V30.0875H44.5375ZM48.4422 16.0172H47.661V15.2328H48.4422V16.0172ZM48.4422 12.1062V13.6703H47.661V12.1062C47.661 10.3844 46.2594 8.98279 44.536 8.98279C42.8141 8.98279 41.4125 10.3844 41.4125 12.1062V28.525H40.6313V12.1078C40.6313 9.95388 42.3836 8.20154 44.5375 8.20154C46.6891 8.20154 48.4399 9.95076 48.443 12.1015C48.443 12.1031 48.4422 12.1047 48.4422 12.1062Z" fill="#2F89F8"/>
<path d="M7.81091 26.1719H10.9359C11.3679 26.1719 11.7172 25.8227 11.7172 25.3906C11.7172 24.9586 11.3679 24.6094 10.9359 24.6094H7.81091C7.37888 24.6094 7.02966 24.9586 7.02966 25.3906C7.02966 25.8227 7.37888 26.1719 7.81091 26.1719Z" fill="#2F89F8"/>
<path d="M10.1547 26.9547H8.59216C8.16013 26.9547 7.81091 27.3039 7.81091 27.736C7.81091 28.168 8.16013 28.5172 8.59216 28.5172H10.1547C10.5867 28.5172 10.9359 28.168 10.9359 27.736C10.9359 27.3039 10.5867 26.9547 10.1547 26.9547Z" fill="#2F89F8"/>
<path d="M17.9688 26.1719H21.0938C21.5258 26.1719 21.875 25.8227 21.875 25.3906C21.875 24.9586 21.5258 24.6094 21.0938 24.6094H17.9688C17.5367 24.6094 17.1875 24.9586 17.1875 25.3906C17.1875 25.8227 17.5367 26.1719 17.9688 26.1719Z" fill="#2F89F8"/>
<path d="M20.3125 26.9547H18.75C18.318 26.9547 17.9688 27.3039 17.9688 27.736C17.9688 28.168 18.318 28.5172 18.75 28.5172H20.3125C20.7445 28.5172 21.0938 28.168 21.0938 27.736C21.0938 27.3039 20.7445 26.9547 20.3125 26.9547Z" fill="#2F89F8"/>
<path d="M28.125 26.1719H31.25C31.682 26.1719 32.0312 25.8227 32.0312 25.3906C32.0312 24.9586 31.682 24.6094 31.25 24.6094H28.125C27.693 24.6094 27.3438 24.9586 27.3438 25.3906C27.3438 25.8227 27.693 26.1719 28.125 26.1719Z" fill="#2F89F8"/>
<path d="M30.4688 26.9547H28.9062C28.4742 26.9547 28.125 27.3039 28.125 27.736C28.125 28.168 28.4742 28.5172 28.9062 28.5172H30.4688C30.9008 28.5172 31.25 28.168 31.25 27.736C31.25 27.3039 30.9008 26.9547 30.4688 26.9547Z" fill="#2F89F8"/>
</g>
<defs>
<clipPath id="clip0_11_748">
<rect width="50" height="50" fill="white"/>
</clipPath>
</defs>
</svg>
