<svg width="20" height="20" viewBox="0 0 20 20" fill="none" xmlns="http://www.w3.org/2000/svg">
<g clip-path="url(#clip0_15_591)">
<path d="M12.1875 8.125H7.8125V8.75H12.1875V8.125Z" fill="#2F89F8"/>
<path d="M19.2834 8.97094C19.412 8.84319 19.5139 8.69121 19.5832 8.52378C19.6526 8.35637 19.688 8.17684 19.6875 7.99563V7.5C19.6858 6.77259 19.5156 6.05547 19.1903 5.40485C18.865 4.75424 18.3934 4.18782 17.8125 3.75C17.481 3.49962 17.2623 3.12797 17.2044 2.71656C17.2945 2.66069 17.3689 2.58281 17.4206 2.49026C17.4723 2.39771 17.4996 2.29352 17.5 2.1875V0.9375C17.5 0.77174 17.4342 0.612769 17.3169 0.495558C17.1997 0.378348 17.0408 0.3125 16.875 0.3125H13.75C13.5842 0.3125 13.4253 0.378348 13.3081 0.495558C13.1909 0.612769 13.125 0.77174 13.125 0.9375V2.1875C13.1254 2.29352 13.1527 2.39771 13.2044 2.49026C13.2561 2.58281 13.3305 2.66069 13.4206 2.71656C13.3627 3.12797 13.144 3.49962 12.8125 3.75C12.553 3.94535 12.3145 4.16717 12.1009 4.41188C11.7502 3.92375 11.5618 3.33766 11.5625 2.73656V2.72563C11.6572 2.67121 11.7359 2.59284 11.7908 2.49839C11.8456 2.40394 11.8747 2.29672 11.875 2.1875V0.9375C11.875 0.77174 11.8092 0.612769 11.6919 0.495558C11.5747 0.378348 11.4158 0.3125 11.25 0.3125H8.75C8.58424 0.3125 8.42527 0.378348 8.30806 0.495558C8.19085 0.612769 8.125 0.77174 8.125 0.9375V2.1875C8.12533 2.29672 8.15438 2.40394 8.20923 2.49839C8.26408 2.59284 8.3428 2.67121 8.4375 2.72563V2.73656C8.43857 3.11604 8.36434 3.49196 8.21914 3.84255C8.07393 4.19315 7.86062 4.51146 7.59156 4.77906C7.13479 5.23537 6.81361 5.80949 6.66375 6.4375C6.21837 5.46613 5.9739 4.41478 5.945 3.34656C6.03769 3.29153 6.11452 3.21339 6.16798 3.11978C6.22144 3.02617 6.2497 2.9203 6.25 2.8125V0.9375C6.25 0.77174 6.18415 0.612769 6.06694 0.495558C5.94973 0.378348 5.79076 0.3125 5.625 0.3125H2.5C2.33424 0.3125 2.17527 0.378348 2.05806 0.495558C1.94085 0.612769 1.875 0.77174 1.875 0.9375V2.8125C1.87529 2.92018 1.90348 3.02596 1.95683 3.1195C2.01017 3.21304 2.08685 3.29117 2.17938 3.34625C2.14082 4.83841 1.68104 6.28924 0.853127 7.53125C0.49999 8.05999 0.311828 8.68168 0.312502 9.3175V18.125C0.312998 18.5392 0.477777 18.9364 0.770696 19.2293C1.06361 19.5222 1.46075 19.687 1.875 19.6875H6.25C6.4954 19.6877 6.73734 19.6296 6.95594 19.5181C7.05637 19.5893 7.17009 19.6397 7.29034 19.6661C7.41059 19.6925 7.53493 19.6945 7.65597 19.672C7.77701 19.6495 7.8923 19.6029 7.99499 19.5349C8.09767 19.467 8.18567 19.3791 8.25375 19.2766L8.52407 18.8703C8.55023 18.835 8.58429 18.8064 8.62352 18.7866C8.66276 18.7668 8.70607 18.7566 8.75 18.7566C8.79393 18.7566 8.83725 18.7668 8.87648 18.7866C8.91572 18.8064 8.94978 18.835 8.97594 18.8703L9.25407 19.2878C9.33594 19.4106 9.44687 19.5113 9.57699 19.5809C9.70712 19.6505 9.85242 19.687 10 19.687C10.1476 19.687 10.2929 19.6505 10.423 19.5809C10.5531 19.5113 10.6641 19.4106 10.7459 19.2878L11.0241 18.8703C11.0502 18.835 11.0843 18.8064 11.1235 18.7866C11.1628 18.7668 11.2061 18.7566 11.25 18.7566C11.2939 18.7566 11.3372 18.7668 11.3765 18.7866C11.4157 18.8064 11.4498 18.835 11.4759 18.8703L11.7463 19.2766C11.8292 19.4008 11.9412 19.503 12.0725 19.5743C12.2039 19.6456 12.3506 19.6838 12.5 19.6856V19.6875H18.125C18.5393 19.687 18.9364 19.5222 19.2293 19.2293C19.5222 18.9364 19.687 18.5392 19.6875 18.125V12.9419C19.688 12.7607 19.6526 12.5811 19.5832 12.4137C19.5139 12.2463 19.412 12.0943 19.2834 11.9666C19.1425 11.8247 19.0631 11.6331 19.0625 11.4331V9.50438C19.0631 9.30442 19.1425 9.11276 19.2834 8.97094ZM18.8416 12.4084C18.9668 12.536 19.043 12.7036 19.0566 12.8819L18.2294 12.3856C18.0027 12.2528 17.7435 12.1858 17.4809 12.1921C17.2182 12.1983 16.9625 12.2777 16.7425 12.4213L16.3241 12.7C16.208 12.7749 16.072 12.8129 15.934 12.809C15.796 12.8052 15.6623 12.7596 15.5506 12.6784L15.0866 12.3306C14.7634 12.0967 14.3857 11.9495 13.9895 11.9032C13.5933 11.8568 13.1918 11.9129 12.8234 12.0659C12.8181 12.0022 12.8125 11.9375 12.8125 11.875C12.8129 11.5131 12.8971 11.1563 13.0588 10.8325C13.3074 10.3336 13.437 9.78395 13.4375 9.22656V8.4375H18.9166C18.894 8.46995 18.8689 8.50057 18.8416 8.52906C18.713 8.65681 18.6111 8.8088 18.5418 8.97622C18.4724 9.14364 18.437 9.32316 18.4375 9.50438V11.4331C18.437 11.6143 18.4724 11.7939 18.5418 11.9613C18.6111 12.1287 18.713 12.2807 18.8416 12.4084ZM13.4063 14.0625C13.3554 13.6647 13.2384 13.2782 13.06 12.9191C13.0232 12.8446 12.9905 12.7683 12.9619 12.6903C13.2385 12.5512 13.5479 12.4907 13.8565 12.5155C14.1651 12.5402 14.461 12.6492 14.7119 12.8306L15.1759 13.1784C15.3919 13.3353 15.6503 13.4233 15.9172 13.4307C16.184 13.4381 16.4469 13.3647 16.6713 13.22L17.0897 12.9413C17.2108 12.8621 17.3515 12.8184 17.4961 12.8149C17.6407 12.8114 17.7834 12.8484 17.9081 12.9216L19.0625 13.6144V14.0625H13.4063ZM6.5625 14.5225V17.1875H0.937502V10.3125H6.73656C6.79117 10.4902 6.8595 10.6635 6.94094 10.8306C7.1031 11.1549 7.18752 11.5125 7.18752 11.875C7.18752 12.2375 7.1031 12.5951 6.94094 12.9194C6.6927 13.4174 6.56317 13.9661 6.5625 14.5225ZM7.1875 9.2275V7.5H12.8125V9.22656C12.8125 9.27625 12.8063 9.32563 12.8038 9.375H7.19625C7.19375 9.32563 7.1875 9.27688 7.1875 9.2275ZM13.75 0.9375H16.875V2.1875H13.75V0.9375ZM13.1875 4.25C13.6488 3.9013 13.9541 3.3848 14.0372 2.8125H16.5878C16.6709 3.3848 16.9762 3.9013 17.4375 4.25C17.9409 4.62945 18.3496 5.12035 18.6316 5.68421C18.9135 6.24808 19.061 6.86958 19.0625 7.5V7.8125H13.4375V7.26344C13.4387 6.38797 13.1104 5.54412 12.5178 4.89969C12.7152 4.658 12.9399 4.43998 13.1875 4.25ZM8.75 0.9375H11.25V2.1875H8.75V0.9375ZM8.03344 5.22094C8.67504 4.58176 9.04275 3.71801 9.05875 2.8125H10.9413C10.9573 3.71801 11.325 4.58176 11.9666 5.22094C12.4139 5.66708 12.7011 6.24863 12.7834 6.875H7.21657C7.29893 6.24863 7.58614 5.66708 8.03344 5.22094ZM2.5 2.8125V2.1875H5.625V2.8125H2.5ZM5.625 0.9375V1.5625H2.5V0.9375H5.625ZM1.37344 7.87844C2.25231 6.55935 2.7466 5.02163 2.80094 3.4375H5.32344C5.37548 4.90038 5.80211 6.32543 6.5625 7.57625V9.2275C6.56293 9.38135 6.57337 9.53501 6.59375 9.6875H0.937502V9.3175C0.936972 8.80521 1.08871 8.30432 1.37344 7.87844ZM1.875 19.0625C1.62636 19.0625 1.3879 18.9637 1.21209 18.7879C1.03627 18.6121 0.937502 18.3736 0.937502 18.125V17.8125H6.5625V18.7644C6.56313 18.842 6.57363 18.9191 6.59375 18.9941C6.48455 19.0385 6.36789 19.0617 6.25 19.0625H1.875ZM12.2663 18.9297L11.9959 18.5234C11.9141 18.4007 11.8031 18.3 11.673 18.2303C11.5429 18.1607 11.3976 18.1243 11.25 18.1243C11.1024 18.1243 10.9571 18.1607 10.827 18.2303C10.6969 18.3 10.5859 18.4007 10.5041 18.5234L10.2259 18.9409C10.1998 18.9762 10.1657 19.0049 10.1265 19.0247C10.0872 19.0444 10.0439 19.0547 10 19.0547C9.95607 19.0547 9.91276 19.0444 9.87352 19.0247C9.83429 19.0049 9.80023 18.9762 9.77407 18.9409L9.49594 18.5234C9.41406 18.4007 9.30314 18.3 9.17301 18.2303C9.04289 18.1607 8.89759 18.1243 8.75 18.1243C8.60242 18.1243 8.45712 18.1607 8.32699 18.2303C8.19687 18.3 8.08594 18.4007 8.00407 18.5234L7.73375 18.9297C7.69827 18.983 7.6466 19.0234 7.58636 19.045C7.52612 19.0666 7.46053 19.0683 7.39927 19.0498C7.33802 19.0312 7.28435 18.9935 7.24622 18.9421C7.20808 18.8907 7.18749 18.8284 7.1875 18.7644V14.5225C7.18806 14.063 7.29502 13.61 7.5 13.1988C7.70551 12.7877 7.8125 12.3345 7.8125 11.875C7.8125 11.4155 7.70551 10.9623 7.5 10.5513C7.41338 10.3748 7.3446 10.1901 7.29469 10H12.7053C12.6553 10.1903 12.5865 10.3751 12.5 10.5519C12.2947 10.9628 12.1878 11.4159 12.1878 11.8753C12.1878 12.3347 12.2947 12.7878 12.5 13.1988C12.7051 13.61 12.8121 14.0632 12.8125 14.5228V18.7644C12.8125 18.8284 12.7919 18.8907 12.7538 18.9421C12.7157 18.9935 12.662 19.0312 12.6007 19.0498C12.5395 19.0683 12.4739 19.0666 12.4136 19.045C12.3534 19.0234 12.3017 18.983 12.2663 18.9297ZM18.125 19.0625H13.3838C13.4182 18.9668 13.4364 18.8661 13.4375 18.7644V14.6875H19.0625V18.125C19.0625 18.3736 18.9637 18.6121 18.7879 18.7879C18.6121 18.9637 18.3736 19.0625 18.125 19.0625Z" fill="#2F89F8"/>
<path d="M16.1875 9.18745C16.1571 9.15058 16.1189 9.1209 16.0757 9.10052C16.0325 9.08015 15.9853 9.06958 15.9375 9.06958C15.8897 9.06958 15.8425 9.08015 15.7993 9.10052C15.7561 9.1209 15.7179 9.15058 15.6875 9.18745L14.9375 10.1874C14.7982 10.3732 14.7134 10.594 14.6926 10.8252C14.6717 11.0564 14.7157 11.2888 14.8195 11.4965C14.9233 11.7041 15.0829 11.8787 15.2803 12.0008C15.4778 12.1228 15.7054 12.1874 15.9375 12.1874C16.1696 12.1874 16.3972 12.1228 16.5947 12.0008C16.7921 11.8787 16.9517 11.7041 17.0555 11.4965C17.1594 11.2888 17.2033 11.0564 17.1824 10.8252C17.1616 10.594 17.0768 10.3732 16.9375 10.1874L16.1875 9.18745ZM15.9375 11.5624C15.8214 11.5624 15.7077 11.5301 15.6089 11.4691C15.5102 11.4081 15.4304 11.3208 15.3785 11.217C15.3266 11.1131 15.3046 10.9969 15.315 10.8813C15.3254 10.7657 15.3679 10.6553 15.4375 10.5624L15.9375 9.89588L16.4375 10.5624C16.5071 10.6553 16.5496 10.7657 16.56 10.8813C16.5704 10.9969 16.5484 11.1131 16.4965 11.217C16.4446 11.3208 16.3648 11.4081 16.2661 11.4691C16.1673 11.5301 16.0536 11.5624 15.9375 11.5624Z" fill="#2F89F8"/>
<path d="M5.3125 11.5625H2.8125C2.56386 11.5625 2.3254 11.6613 2.14959 11.8371C1.97377 12.0129 1.875 12.2514 1.875 12.5V15C1.875 15.2486 1.97377 15.4871 2.14959 15.6629C2.3254 15.8387 2.56386 15.9375 2.8125 15.9375H5.3125C5.56114 15.9375 5.7996 15.8387 5.97541 15.6629C6.15123 15.4871 6.25 15.2486 6.25 15V12.5C6.25 12.2514 6.15123 12.0129 5.97541 11.8371C5.7996 11.6613 5.56114 11.5625 5.3125 11.5625ZM5.625 15C5.625 15.0829 5.59208 15.1624 5.53347 15.221C5.47487 15.2796 5.39538 15.3125 5.3125 15.3125H2.8125C2.72962 15.3125 2.65013 15.2796 2.59153 15.221C2.53292 15.1624 2.5 15.0829 2.5 15V12.5C2.5 12.4171 2.53292 12.3376 2.59153 12.279C2.65013 12.2204 2.72962 12.1875 2.8125 12.1875H5.3125C5.39538 12.1875 5.47487 12.2204 5.53347 12.279C5.59208 12.3376 5.625 12.4171 5.625 12.5V15Z" fill="#2F89F8"/>
</g>
<defs>
<clipPath id="clip0_15_591">
<rect width="20" height="20" fill="white"/>
</clipPath>
</defs>
</svg>
