<svg width="20" height="20" viewBox="0 0 20 20" fill="none" xmlns="http://www.w3.org/2000/svg">
<g clip-path="url(#clip0_17_670)">
<path d="M19.6667 18C18.9842 17.9967 18.3283 18.2639 17.8423 18.743C17.6603 18.93 17.4426 19.0786 17.2021 19.1801C16.9617 19.2816 16.7033 19.3339 16.4423 19.3339C16.1813 19.3339 15.923 19.2816 15.6825 19.1801C15.4421 19.0786 15.2244 18.93 15.0423 18.743C14.5548 18.2667 13.9003 18 13.2187 18C12.5371 18 11.8825 18.2667 11.395 18.743C11.2131 18.9298 10.9957 19.0783 10.7555 19.1797C10.5153 19.2811 10.2572 19.3333 9.9965 19.3333C9.73578 19.3333 9.4777 19.2811 9.2375 19.1797C8.9973 19.0783 8.77986 18.9298 8.598 18.743C8.11256 18.2641 7.45722 17.997 6.77533 18C6.73667 18 6.70367 18.0047 6.66667 18.006V17.6667C6.66632 17.5502 6.63533 17.4358 6.57683 17.3351C6.51832 17.2343 6.43435 17.1507 6.33333 17.0927V8.90733C6.43435 8.84929 6.51832 8.7657 6.57683 8.66495C6.63533 8.5642 6.66632 8.44984 6.66667 8.33333V6.33333C6.66622 6.18459 6.61603 6.04026 6.5241 5.92332C6.43217 5.80638 6.30377 5.72355 6.15933 5.688L5.33333 4.862V4.33333C5.33298 4.21683 5.302 4.10247 5.24349 4.00172C5.18499 3.90097 5.10101 3.81738 5 3.75933V3.66667C5.00053 3.2248 5.17629 2.80119 5.48874 2.48874C5.80119 2.17629 6.2248 2.00053 6.66667 2H10.6667C11.1085 2.00053 11.5321 2.17629 11.8446 2.48874C12.157 2.80119 12.3328 3.2248 12.3333 3.66667V4H12C11.7348 4 11.4804 4.10536 11.2929 4.29289C11.1054 4.48043 11 4.73478 11 5V5.33333C11.0003 5.45882 11.0364 5.5816 11.104 5.68733C10.7668 5.89609 10.4884 6.18744 10.2952 6.53379C10.1021 6.88015 10.0004 7.27007 10 7.66667V8.33333C9.99918 8.5326 10.0434 8.72947 10.1294 8.90922C10.2154 9.08897 10.341 9.24695 10.4967 9.37133C10.5476 9.40934 10.5893 9.45832 10.6187 9.51463C10.6482 9.57095 10.6645 9.63316 10.6667 9.69667C10.6666 9.80239 10.6246 9.90378 10.55 9.97867C10.3752 10.1527 10.2365 10.3596 10.1421 10.5875C10.0477 10.8153 9.99941 11.0597 10 11.3063V16C10 16.3536 10.1405 16.6928 10.3905 16.9428C10.6406 17.1929 10.9797 17.3333 11.3333 17.3333H15.3333C15.687 17.3333 16.0261 17.1929 16.2761 16.9428C16.5262 16.6928 16.6667 16.3536 16.6667 16V11.3063C16.6673 11.0597 16.619 10.8153 16.5246 10.5875C16.4301 10.3596 16.2915 10.1527 16.1167 9.97867C16.042 9.90378 16.0001 9.80239 16 9.69667C16.0021 9.63316 16.0185 9.57095 16.0479 9.51463C16.0774 9.45832 16.1191 9.40934 16.17 9.37133C16.3257 9.24695 16.4512 9.08897 16.5372 8.90922C16.6232 8.72947 16.6675 8.5326 16.6667 8.33333V7.66667C16.6662 7.27007 16.5646 6.88015 16.3714 6.53379C16.1782 6.18744 15.8999 5.89609 15.5627 5.68733C15.6302 5.5816 15.6663 5.45882 15.6667 5.33333V5C15.6667 4.73478 15.5613 4.48043 15.3738 4.29289C15.1862 4.10536 14.9319 4 14.6667 4H14.3333V3.66667C14.3322 2.69456 13.9455 1.76259 13.2581 1.07521C12.5707 0.387824 11.6388 0.00114682 10.6667 0L6.66667 0C5.69456 0.00114682 4.76259 0.387824 4.07521 1.07521C3.38782 1.76259 3.00115 2.69456 3 3.66667V3.75933C2.89899 3.81738 2.81501 3.90097 2.75651 4.00172C2.698 4.10247 2.66702 4.21683 2.66667 4.33333V4.862L1.84067 5.688C1.69623 5.72355 1.56783 5.80638 1.4759 5.92332C1.38397 6.04026 1.33378 6.18459 1.33333 6.33333V8.33333C1.33368 8.44984 1.36467 8.5642 1.42317 8.66495C1.48168 8.7657 1.56565 8.84929 1.66667 8.90733V17.0927C1.56565 17.1507 1.48168 17.2343 1.42317 17.3351C1.36467 17.4358 1.33368 17.5502 1.33333 17.6667V18.198C1.01776 18.062 0.676921 17.9945 0.333333 18C0.244928 18 0.160143 18.0351 0.0976311 18.0976C0.035119 18.1601 0 18.2449 0 18.3333C0 18.4217 0.035119 18.5065 0.0976311 18.569C0.160143 18.6315 0.244928 18.6667 0.333333 18.6667C0.594022 18.6661 0.852157 18.718 1.0923 18.8195C1.33245 18.9209 1.54968 19.0697 1.731 19.257C2.21828 19.7333 2.87261 20 3.554 20C4.23539 20 4.88972 19.7333 5.377 19.257C5.55886 19.0702 5.77631 18.9217 6.0165 18.8203C6.2567 18.7189 6.51478 18.6667 6.7755 18.6667C7.03622 18.6667 7.2943 18.7189 7.5345 18.8203C7.7747 18.9217 7.99214 19.0702 8.174 19.257C8.6614 19.7334 9.31592 20.0002 9.9975 20.0002C10.6791 20.0002 11.3336 19.7334 11.821 19.257C12.003 19.0702 12.2205 18.9218 12.4607 18.8205C12.701 18.7191 12.9591 18.6669 13.2198 18.6669C13.4806 18.6669 13.7387 18.7191 13.9789 18.8205C14.2192 18.9218 14.4367 19.0702 14.6187 19.257C15.1065 19.7333 15.7612 19.9999 16.443 19.9999C17.1248 19.9999 17.7795 19.7333 18.2673 19.257C18.449 19.0696 18.6665 18.9208 18.9069 18.8194C19.1473 18.7179 19.4057 18.666 19.6667 18.6667C19.7551 18.6667 19.8399 18.6315 19.9024 18.569C19.9649 18.5065 20 18.4217 20 18.3333C20 18.2449 19.9649 18.1601 19.9024 18.0976C19.8399 18.0351 19.7551 18 19.6667 18ZM16 16C16 16.1768 15.9298 16.3464 15.8047 16.4714C15.6797 16.5964 15.5101 16.6667 15.3333 16.6667H11.3333C11.1565 16.6667 10.987 16.5964 10.8619 16.4714C10.7369 16.3464 10.6667 16.1768 10.6667 16V14.7893C10.9196 14.9337 11.2071 15.0066 11.4983 15C11.9047 15.0046 12.2993 14.8638 12.611 14.603C12.8109 14.4291 13.0669 14.3334 13.3318 14.3334C13.5968 14.3334 13.8528 14.4291 14.0527 14.603C14.3647 14.8642 14.7598 15.005 15.1667 15C15.4586 15.0064 15.7467 14.9331 16 14.788V16ZM16 7.66667V8.33333C16.0006 8.43263 15.9787 8.53078 15.936 8.62042C15.8932 8.71006 15.8308 8.78889 15.7533 8.851C15.6241 8.95122 15.5193 9.07933 15.4466 9.22577C15.3738 9.3722 15.3351 9.53318 15.3333 9.69667C15.333 9.83663 15.3603 9.97527 15.4139 10.1046C15.4675 10.2339 15.5461 10.3513 15.6453 10.45C15.8716 10.6777 15.999 10.9853 16 11.3063V13.9883C15.963 14.014 15.923 14.0373 15.8867 14.0637C15.6866 14.2374 15.4305 14.3331 15.1655 14.3331C14.9005 14.3331 14.6444 14.2374 14.4443 14.0637C14.1303 13.8069 13.7371 13.6667 13.3315 13.6667C12.9259 13.6667 12.5327 13.8069 12.2187 14.0637C12.0191 14.2376 11.7632 14.3334 11.4985 14.3334C11.2338 14.3334 10.9779 14.2376 10.7783 14.0637C10.7427 14.0377 10.7033 14.0143 10.6667 13.989V11.3063C10.6676 10.9853 10.7951 10.6777 11.0213 10.45C11.1206 10.3513 11.1992 10.2339 11.2528 10.1046C11.3063 9.97527 11.3337 9.83663 11.3333 9.69667C11.3315 9.53318 11.2928 9.3722 11.2201 9.22577C11.1474 9.07933 11.0425 8.95122 10.9133 8.851C10.8359 8.78889 10.7734 8.71006 10.7307 8.62042C10.688 8.53078 10.6661 8.43263 10.6667 8.33333V7.66667C10.6672 7.2248 10.843 6.80119 11.1554 6.48874C11.4679 6.17629 11.8915 6.00053 12.3333 6V7.66667C12.3333 7.79047 12.3678 7.91184 12.4329 8.01715C12.498 8.12247 12.5911 8.20758 12.7019 8.26295C12.8126 8.31832 12.9366 8.34176 13.0599 8.33064C13.1832 8.31952 13.301 8.27429 13.4 8.2L14.0667 7.7C14.1492 7.63769 14.2163 7.55712 14.2625 7.4646C14.3088 7.37208 14.333 7.27011 14.3333 7.16667V6C14.7752 6.00053 15.1988 6.17629 15.5113 6.48874C15.8237 6.80119 15.9995 7.2248 16 7.66667ZM13 7.66667V6H13.6667V7.16667L13 7.66667ZM14.6667 4.66667C14.7551 4.66667 14.8399 4.70179 14.9024 4.7643C14.9649 4.82681 15 4.91159 15 5V5.33333H11.6667V5C11.6667 4.91159 11.7018 4.82681 11.7643 4.7643C11.8268 4.70179 11.9116 4.66667 12 4.66667H14.6667ZM6.66667 0.666667H10.6667C11.462 0.667637 12.2245 0.984019 12.7869 1.54642C13.3493 2.10882 13.6657 2.87132 13.6667 3.66667V4H13V3.66667C12.9993 3.04804 12.7532 2.45496 12.3158 2.01753C11.8784 1.5801 11.2853 1.33404 10.6667 1.33333H6.66667C6.04805 1.33404 5.45496 1.5801 5.01753 2.01753C4.5801 2.45496 4.33404 3.04804 4.33333 3.66667H3.66667C3.66764 2.87132 3.98402 2.10882 4.54642 1.54642C5.10882 0.984019 5.87132 0.667637 6.66667 0.666667ZM3.23567 5.23567C3.29818 5.17317 3.33331 5.0884 3.33333 5V4.33333H4.66667V5C4.66669 5.0884 4.70182 5.17317 4.76433 5.23567L5.19533 5.66667H2.80467L3.23567 5.23567ZM6 18.1143C5.61145 18.2502 5.25481 18.4642 4.952 18.743C4.77026 18.9298 4.55292 19.0783 4.31284 19.1796C4.07275 19.281 3.81478 19.3332 3.55417 19.3332C3.29355 19.3332 3.03558 19.281 2.7955 19.1796C2.55541 19.0783 2.33808 18.9298 2.15633 18.743C2.10533 18.7007 2.05333 18.6577 2 18.615V17.6667H6V18.1143ZM2.33333 17V9H5.66667V17H2.33333ZM6 8.33333H2V6.33333H6V8.33333Z" fill="#2F89F8"/>
<path d="M3.33333 10.3334C3.51743 10.3334 3.66667 10.1842 3.66667 10.0001C3.66667 9.81599 3.51743 9.66675 3.33333 9.66675C3.14924 9.66675 3 9.81599 3 10.0001C3 10.1842 3.14924 10.3334 3.33333 10.3334Z" fill="#2F89F8"/>
<path d="M4.66671 12.6667C4.8508 12.6667 5.00004 12.5174 5.00004 12.3333C5.00004 12.1492 4.8508 12 4.66671 12C4.48261 12 4.33337 12.1492 4.33337 12.3333C4.33337 12.5174 4.48261 12.6667 4.66671 12.6667Z" fill="#2F89F8"/>
<path d="M4.66671 15.3334C4.8508 15.3334 5.00004 15.1842 5.00004 15.0001C5.00004 14.816 4.8508 14.6667 4.66671 14.6667C4.48261 14.6667 4.33337 14.816 4.33337 15.0001C4.33337 15.1842 4.48261 15.3334 4.66671 15.3334Z" fill="#2F89F8"/>
<path d="M4.66671 10.9999C4.8508 10.9999 5.00004 10.8507 5.00004 10.6666C5.00004 10.4825 4.8508 10.3333 4.66671 10.3333C4.48261 10.3333 4.33337 10.4825 4.33337 10.6666C4.33337 10.8507 4.48261 10.9999 4.66671 10.9999Z" fill="#2F89F8"/>
<path d="M3.33333 12.9999C3.51743 12.9999 3.66667 12.8507 3.66667 12.6666C3.66667 12.4825 3.51743 12.3333 3.33333 12.3333C3.14924 12.3333 3 12.4825 3 12.6666C3 12.8507 3.14924 12.9999 3.33333 12.9999Z" fill="#2F89F8"/>
<path d="M3.66671 16.3334C3.8508 16.3334 4.00004 16.1842 4.00004 16.0001C4.00004 15.816 3.8508 15.6667 3.66671 15.6667C3.48261 15.6667 3.33337 15.816 3.33337 16.0001C3.33337 16.1842 3.48261 16.3334 3.66671 16.3334Z" fill="#2F89F8"/>
<path d="M3.33333 11.6667C3.51743 11.6667 3.66667 11.5174 3.66667 11.3333C3.66667 11.1492 3.51743 11 3.33333 11C3.14924 11 3 11.1492 3 11.3333C3 11.5174 3.14924 11.6667 3.33333 11.6667Z" fill="#2F89F8"/>
<path d="M4.33333 13.9999C4.51743 13.9999 4.66667 13.8507 4.66667 13.6666C4.66667 13.4825 4.51743 13.3333 4.33333 13.3333C4.14924 13.3333 4 13.4825 4 13.6666C4 13.8507 4.14924 13.9999 4.33333 13.9999Z" fill="#2F89F8"/>
<path d="M3.33333 14.9999C3.51743 14.9999 3.66667 14.8507 3.66667 14.6666C3.66667 14.4825 3.51743 14.3333 3.33333 14.3333C3.14924 14.3333 3 14.4825 3 14.6666C3 14.8507 3.14924 14.9999 3.33333 14.9999Z" fill="#2F89F8"/>
<path d="M13.78 9.315C13.7474 9.22262 13.6869 9.14266 13.6069 9.08621C13.5269 9.02976 13.4312 8.99963 13.3333 9C13.2354 8.99965 13.1398 9.0298 13.0598 9.08625C12.9798 9.14269 12.9194 9.22265 12.887 9.315C12.766 9.63665 12.6068 9.94261 12.413 10.2263C12.1814 10.5252 12.039 10.8834 12.002 11.2597C11.9818 11.5833 12.0811 11.903 12.281 12.1582C12.481 12.4134 12.7676 12.5864 13.0866 12.6443C13.1675 12.6589 13.2495 12.6663 13.3316 12.6663C13.5071 12.6666 13.6809 12.6321 13.8431 12.565C14.0052 12.4979 14.1525 12.3995 14.2766 12.2753C14.4006 12.1512 14.4989 12.0038 14.5658 11.8416C14.6328 11.6793 14.667 11.5055 14.6666 11.33C14.6466 10.9283 14.5024 10.5426 14.254 10.2263C14.0601 9.94261 13.9009 9.63665 13.78 9.315ZM13.7596 11.846C13.6835 11.9094 13.5943 11.9551 13.4983 11.9798C13.4024 12.0044 13.3022 12.0073 13.205 11.9883C13.0445 11.9598 12.9004 11.8724 12.8009 11.7434C12.7014 11.6143 12.6535 11.4528 12.6666 11.2903C12.7023 11.0319 12.8083 10.7883 12.973 10.586C13.1053 10.3869 13.2257 10.1801 13.3333 9.96667C13.4406 10.1802 13.5606 10.3871 13.6926 10.5863C13.868 10.7974 13.9751 11.0567 14 11.33C14.0002 11.4284 13.9788 11.5256 13.9372 11.6148C13.8957 11.7039 13.8351 11.7829 13.7596 11.846Z" fill="#2F89F8"/>
</g>
<defs>
<clipPath id="clip0_17_670">
<rect width="20" height="20" fill="white"/>
</clipPath>
</defs>
</svg>
